<svg width="51" height="51" viewBox="0 0 51 51" fill="none" xmlns="http://www.w3.org/2000/svg">
<g clip-path="url(#clip0_1865_5459)">
<path fill-rule="evenodd" clip-rule="evenodd" d="M1.53995 1.3013C1.3734 1.34971 1.0424 1.5561 0.804236 1.7599C-0.674764 3.02594 -0.0226216 5.41417 1.90173 5.77904C2.18562 5.83293 3.50833 5.87696 4.84111 5.87696C7.12794 5.87696 7.27018 5.88772 7.3667 6.06801C7.42298 6.1731 8.25323 11.6528 9.21187 18.2453C10.1705 24.8377 11.0279 30.5452 11.1173 30.9287C11.4029 32.1542 12.1819 33.4492 13.1166 34.2522C13.7249 34.7748 14.9315 35.4078 15.7519 35.6345C16.3415 35.7973 17.2788 35.8096 29.1855 35.8096C41.3005 35.8096 42.02 35.7998 42.6328 35.6268C44.7542 35.0278 46.5374 33.3142 47.1072 31.3272C47.4036 30.2932 50.9997 12.1696 50.9978 11.7191C50.9952 11.0993 50.7439 10.5211 50.29 10.0905C49.5757 9.41279 51.1202 9.4629 30.9427 9.4629H12.672L12.6181 9.23877C12.5885 9.11556 12.4681 8.34229 12.3505 7.52051C12.2329 6.69874 12.0739 5.72565 11.9973 5.35819C11.5797 3.35525 10.0911 1.80433 8.14614 1.34583C7.66563 1.23247 6.86218 1.2 4.68163 1.20578C3.12025 1.20986 1.7065 1.25289 1.53995 1.3013ZM17.5183 37.9573C16.1872 38.1552 15.0483 38.7524 14.1099 39.7447C11.5495 42.4521 11.9968 46.6885 15.0635 48.7743C17.3948 50.3599 20.3659 50.0734 22.3592 48.071C23.5373 46.8874 24.1055 45.5037 24.1055 43.8178C24.1055 42.825 23.9246 42.0562 23.4809 41.1636C23.0825 40.3618 22.1545 39.3335 21.374 38.8286C20.3092 38.1399 18.7143 37.7794 17.5183 37.9573ZM37.6885 37.9551C35.7475 38.2997 34.1116 39.5284 33.2767 41.2687C32.7846 42.2943 32.6289 43.0851 32.6987 44.2051C32.7953 45.7579 33.3841 47.0587 34.4682 48.1146C36.7035 50.2918 40.2888 50.3582 42.6015 48.2653C43.3911 47.5507 43.8949 46.7799 44.2612 45.7251C44.519 44.9832 44.5561 44.74 44.5506 43.8281C44.546 43.0595 44.4897 42.6106 44.3383 42.1348C43.7315 40.2282 42.1553 38.6703 40.2742 38.1176C39.6015 37.92 38.3344 37.8404 37.6885 37.9551Z" fill="white"/>
</g>
<defs>
<clipPath id="clip0_1865_5459">
<rect width="51" height="51" fill="white"/>
</clipPath>
</defs>
</svg>
