<svg width="56" height="56" viewBox="0 0 56 56" fill="none" xmlns="http://www.w3.org/2000/svg">
<g clip-path="url(#clip0_1865_5455)">
<path fill-rule="evenodd" clip-rule="evenodd" d="M47.9063 0.175884C47.0688 0.400759 46.2153 0.807743 45.5748 1.28768C45.2337 1.5434 42.8944 4.25546 39.2991 8.56374C36.1467 12.3413 33.545 15.4913 33.5177 15.5637C33.4885 15.6409 33.8146 15.8732 34.305 16.1246C36.5357 17.2686 38.7369 19.4503 39.9992 21.768C40.2274 22.1871 40.4633 22.5266 40.5235 22.5226C40.5836 22.5188 43.7321 19.9228 47.5201 16.7539C55.1389 10.3801 55.1383 10.3808 55.7205 8.61898C55.9542 7.91187 56 7.56974 56 6.53145C56 5.70818 55.9406 5.08956 55.8237 4.6957C55.1642 2.47243 53.3672 0.735775 51.1372 0.166478C50.3203 -0.0421003 48.7008 -0.0373972 47.9063 0.175884ZM24.8787 17.7724C23.8886 17.9468 22.3386 18.4661 21.4375 18.9253C20.5071 19.3993 19.6241 20.0594 17.9193 21.5554C13.5287 25.4083 10.2015 27.7604 6.56253 29.584C4.48681 30.6241 3.17125 31.0812 0.285172 31.7651L-0.03125 31.8402L0.0287969 33.174C0.121766 35.2376 0.813125 38.0716 1.39741 38.7848C1.58181 39.0098 1.60905 39.0116 2.62503 38.8628C4.06977 38.6514 5.75523 38.236 6.49428 37.9091C6.83673 37.7577 7.08162 37.6933 7.03853 37.7661C6.99544 37.8388 6.34159 38.6058 5.58559 39.4704C4.82959 40.335 4.02153 41.259 3.78998 41.5239L3.36889 42.0056L3.67252 42.4129C4.22913 43.1598 6.38348 45.2813 6.58539 45.2813C6.85927 45.2813 9.21947 44.0536 10.5915 43.1976C11.9143 42.3722 14.1329 40.7297 15.0443 39.9011C15.3957 39.5817 15.6548 39.3695 15.6201 39.4297C15.2163 40.1301 12.5735 44.3674 11.5694 45.9242C10.8563 47.0297 10.2941 47.9555 10.3199 47.9814C10.421 48.0824 15.5267 44.8669 17.1992 43.6491C17.5451 43.3972 17.8282 43.2194 17.8282 43.2541C17.8282 43.2888 17.7023 43.5074 17.5484 43.7401C17.0656 44.4696 16.083 46.7911 15.4147 48.7813L14.7719 50.6953L15.3429 50.9539C16.5124 51.4835 19.3152 52.4988 19.609 52.4995C20.0905 52.5003 21.2055 52.0874 22.0391 51.5996C25.1066 49.8041 29.0472 45.745 33.4905 39.8039C36.7137 35.4942 37.7024 33.8234 38.2419 31.7734C38.4915 30.8254 38.5299 30.4612 38.5299 29.0391C38.5299 27.617 38.4915 27.2528 38.2419 26.3047C37.1607 22.1976 34.0445 19.0867 29.9103 17.9873C28.5508 17.6258 26.264 17.5281 24.8787 17.7724ZM35.8739 45.7461C35.2526 46.1689 35.0543 46.5332 35.0583 47.2442C35.0613 47.7649 35.116 47.9489 35.3648 48.2751C35.7553 48.7871 36.1782 49 36.8047 49C37.4328 49 37.8543 48.7869 38.2483 48.2704C38.6474 47.7472 38.6852 46.7859 38.3259 46.301C37.9236 45.758 37.4336 45.5 36.8047 45.5C36.3945 45.5 36.1345 45.5687 35.8739 45.7461ZM40.7637 49.2156C39.938 49.5381 39.3246 50.1111 38.9157 50.942C38.604 51.5749 38.5547 51.7879 38.5547 52.5C38.5547 53.2122 38.604 53.4251 38.9157 54.0581C39.5305 55.307 40.6507 56 42.0547 56C43.4588 56 44.579 55.307 45.1938 54.0581C45.5054 53.4251 45.5547 53.2122 45.5547 52.5C45.5547 50.4911 44.0403 48.9911 42.0262 49.0051C41.576 49.0082 41.0846 49.0901 40.7637 49.2156ZM28.8739 52.7461C28.2526 53.1689 28.0543 53.5332 28.0583 54.2442C28.0613 54.7649 28.116 54.9489 28.3648 55.2751C28.7553 55.7871 29.1782 56 29.8047 56C30.4328 56 30.8543 55.7869 31.2483 55.2704C31.6474 54.7472 31.6852 53.7859 31.3259 53.301C30.9236 52.758 30.4336 52.5 29.8047 52.5C29.3945 52.5 29.1345 52.5687 28.8739 52.7461Z" fill="white"/>
</g>
<defs>
<clipPath id="clip0_1865_5455">
<rect width="56" height="56" fill="white"/>
</clipPath>
</defs>
</svg>
