<svg width="21" height="162" viewBox="0 0 21 162" fill="none" xmlns="http://www.w3.org/2000/svg">
<line opacity="0.2" x1="10.493" y1="0.89541" x2="10.7117" y2="50.9976" stroke="white" stroke-width="1.10703"/>
<path d="M6.7529 79.2716C5.8807 79.2716 5.11542 79.064 4.45707 78.6489C3.80292 78.2338 3.29134 77.653 2.92233 76.9066C2.55751 76.1602 2.3751 75.288 2.3751 74.29C2.3751 73.2836 2.55751 72.4051 2.92233 71.6545C3.29134 70.9039 3.80292 70.321 4.45707 69.9059C5.11542 69.4907 5.8807 69.2832 6.7529 69.2832C7.62511 69.2832 8.38828 69.4907 9.04244 69.9059C9.70079 70.321 10.2124 70.9039 10.5772 71.6545C10.9462 72.4051 11.1307 73.2836 11.1307 74.29C11.1307 75.288 10.9462 76.1602 10.5772 76.9066C10.2124 77.653 9.70079 78.2338 9.04244 78.6489C8.38828 79.064 7.62511 79.2716 6.7529 79.2716ZM6.7529 77.9381C7.41544 77.9381 7.96057 77.7683 8.38828 77.4286C8.816 77.089 9.13259 76.6424 9.33807 76.0889C9.54354 75.5354 9.64627 74.9357 9.64627 74.29C9.64627 73.6442 9.54354 73.0425 9.33807 72.4847C9.13259 71.927 8.816 71.4763 8.38828 71.1324C7.96057 70.7886 7.41544 70.6166 6.7529 70.6166C6.09036 70.6166 5.54523 70.7886 5.11752 71.1324C4.6898 71.4763 4.37321 71.927 4.16774 72.4847C3.96226 73.0425 3.85953 73.6442 3.85953 74.29C3.85953 74.9357 3.96226 75.5354 4.16774 76.0889C4.37321 76.6424 4.6898 77.089 5.11752 77.4286C5.54523 77.7683 6.09036 77.9381 6.7529 77.9381ZM13.3966 79.0703V69.409H14.8308V70.8682H14.9314C15.1075 70.3902 15.4262 70.0023 15.8875 69.7046C16.3487 69.4069 16.8687 69.258 17.4474 69.258C17.5564 69.258 17.6927 69.2601 17.8562 69.2643C18.0198 69.2685 18.1435 69.2748 18.2273 69.2832V70.7928C18.177 70.7802 18.0617 70.7613 17.8814 70.7361C17.7053 70.7068 17.5187 70.6921 17.3216 70.6921C16.8519 70.6921 16.4326 70.7907 16.0636 70.9877C15.6988 71.1806 15.4094 71.449 15.1956 71.7929C14.9859 72.1325 14.8811 72.5204 14.8811 72.9565V79.0703H13.3966Z" fill="white"/>
<line opacity="0.2" x1="10.6023" y1="95.1406" x2="10.6023" y2="151.979" stroke="white" stroke-width="1.10703"/>
</svg>
