<svg width="16" height="16" viewBox="0 0 16 16" fill="none" xmlns="http://www.w3.org/2000/svg">
<path fill-rule="evenodd" clip-rule="evenodd" d="M6.40726 10.4048C3.52426 10.4048 1.06201 10.8405 1.06201 12.5865C1.06201 14.3325 3.50926 14.784 6.40726 14.784C9.29101 14.784 11.7525 14.3475 11.7525 12.6023C11.7525 10.857 9.30601 10.4048 6.40726 10.4048Z" stroke="white" stroke-width="1.5" stroke-linecap="round" stroke-linejoin="round"/>
<path fill-rule="evenodd" clip-rule="evenodd" d="M6.40721 7.9145C8.29946 7.9145 9.83321 6.38075 9.83321 4.4885C9.83321 2.59625 8.29946 1.0625 6.40721 1.0625C4.51571 1.0625 2.98196 2.59625 2.98196 4.4885C2.97521 6.374 4.49771 7.90775 6.38396 7.9145H6.40721Z" stroke="white" stroke-width="1.5" stroke-linecap="round" stroke-linejoin="round"/>
<path d="M13.4023 5.50195V8.50945" stroke="white" stroke-width="1.5" stroke-linecap="round" stroke-linejoin="round"/>
<path d="M14.9371 7.00562H11.8696" stroke="white" stroke-width="1.5" stroke-linecap="round" stroke-linejoin="round"/>
</svg>
