<svg width="169" height="51" viewBox="0 0 169 51" fill="none" xmlns="http://www.w3.org/2000/svg">
<g clip-path="url(#clip0_1865_5930)">
<path d="M162.005 49.9832H6.35068C2.92629 49.9832 0.124512 47.1814 0.124512 43.757V6.39997C0.124512 2.97558 2.92629 0.173801 6.35068 0.173801H162.005C165.429 0.173801 168.231 2.97558 168.231 6.39997V43.757C168.231 47.1814 165.429 49.9832 162.005 49.9832Z" fill="white"/>
<path d="M59.1713 12.9291C59.1713 13.9723 58.8623 14.8032 58.2436 15.4229C57.5408 16.1599 56.6248 16.5286 55.4987 16.5286C54.4203 16.5286 53.5035 16.155 52.7495 15.4069C51.9941 14.6592 51.6172 13.7321 51.6172 12.626C51.6172 11.5194 51.9941 10.5928 52.7495 9.84465C53.5035 9.09701 54.4203 8.72294 55.4987 8.72294C56.0338 8.72294 56.5461 8.82754 57.0325 9.03624C57.5188 9.24544 57.909 9.52313 58.2009 9.87092L57.5441 10.528C57.0495 9.93704 56.3685 9.6418 55.4987 9.6418C54.7122 9.6418 54.0322 9.91811 53.4583 10.4711C52.8842 11.0248 52.5973 11.7426 52.5973 12.626C52.5973 13.5094 52.8842 14.2272 53.4583 14.7809C54.0322 15.3339 54.7122 15.6102 55.4987 15.6102C56.333 15.6102 57.0286 15.3324 57.5855 14.776C57.9469 14.4135 58.156 13.9097 58.2119 13.2627H55.4987V12.3652H59.1192C59.1542 12.5604 59.1713 12.7477 59.1713 12.9291Z" fill="black"/>
<path d="M59.1713 12.9293H59.0468C59.0458 13.9488 58.748 14.7406 58.1555 15.3351L58.1542 15.3361L58.1537 15.3371C57.4732 16.0486 56.5985 16.4028 55.4987 16.4043C54.4491 16.4028 53.5706 16.0448 52.837 15.3191C52.1051 14.5918 51.7431 13.7041 51.7417 12.6262C51.7431 11.5479 52.1051 10.6606 52.837 9.93391C53.5706 9.20769 54.4491 8.84919 55.4987 8.8477C56.0177 8.8477 56.512 8.94893 56.9833 9.15078C57.4551 9.35413 57.8278 9.62061 58.1055 9.95147L58.2009 9.87115L58.1128 9.78311L57.4561 10.4407L57.5441 10.5283L57.64 10.4486C57.1224 9.82832 56.3958 9.51564 55.4987 9.51751C54.6831 9.51651 53.9656 9.80789 53.3721 10.3819C52.7729 10.9579 52.4718 11.7161 52.4728 12.6262C52.4718 13.5364 52.7729 14.2946 53.3721 14.8705C53.9656 15.4446 54.6831 15.736 55.4987 15.735C56.3607 15.7365 57.0952 15.4441 57.6735 14.8643C58.0598 14.477 58.2787 13.9406 58.3361 13.2736L58.3477 13.1384H55.6232V12.49H59.1192V12.3655L58.9966 12.3874C59.0307 12.5762 59.0468 12.7556 59.0468 12.9293H59.1713H59.2958C59.2958 12.74 59.2782 12.5455 59.2418 12.3432L59.2233 12.241H55.3742V13.2629V13.3874H58.2119V13.2629L58.0879 13.2522C58.033 13.8788 57.8335 14.3506 57.4974 14.6882C56.9624 15.2213 56.3057 15.4844 55.4987 15.4859C54.7414 15.4849 54.0988 15.2242 53.5448 14.6916C52.9962 14.1609 52.7232 13.4833 52.7218 12.6262C52.7232 11.7691 52.9962 11.0916 53.5448 10.5609C54.0988 10.0283 54.7414 9.76755 55.4987 9.76655C56.3407 9.76855 56.9766 10.0467 57.4489 10.6086L57.5364 10.7127L58.2889 9.95919L58.3696 9.8785L58.2961 9.79133C57.9902 9.42661 57.5826 9.13709 57.0815 8.92216C56.5796 8.70661 56.0499 8.59865 55.4987 8.59865C54.3917 8.59765 53.4364 8.98679 52.6615 9.75684C51.8837 10.5254 51.4917 11.4915 51.4927 12.6262C51.4917 13.7605 51.8837 14.7271 52.6619 15.4961C53.4364 16.2657 54.3917 16.6543 55.4987 16.6533C56.6515 16.6543 57.6079 16.2714 58.3336 15.5092L58.2436 15.4232L58.3316 15.5112C58.9766 14.8667 59.2967 13.996 59.2958 12.9293H59.1713Z" fill="black"/>
<path d="M64.911 9.80827H61.5085V12.1772H64.5769V13.075H61.5085V15.444H64.911V16.3618H60.5493V8.89041H64.911V9.80827Z" fill="black"/>
<path d="M64.911 9.80826V9.68374H61.384V12.3017H64.4524V12.9501L61.384 12.9505V15.5685H64.7865V16.2373H60.6739V9.01492H64.7865V9.80826H64.911V9.68374V9.80826H65.0355V8.8904V8.76588H60.4248V16.4863H65.0355V15.4439V15.3194H61.6331V13.1995H64.7014V12.1772V12.0527H61.6331V9.93279H65.0355V9.80826H64.911Z" fill="black"/>
<path d="M68.9596 16.3618H67.9989V9.80827H65.9121V8.89041H71.0463V9.80827H68.9596V16.3618Z" fill="black"/>
<path d="M68.9596 16.3618V16.2373H68.1234V9.68374H66.0366V9.01492H70.9218V9.68374H68.8351V16.3618H68.9596V16.2373V16.3618H69.0841V9.93279H71.1709V8.8904V8.76588H65.7876V9.80826V9.93279H67.8744V16.4863H68.9596H69.0841V16.3618H68.9596Z" fill="black"/>
<path d="M74.7612 16.3618V8.89041H75.7209V16.3618H74.7612Z" fill="black"/>
<path d="M74.7612 16.3618H74.8858V9.01492H75.5964V16.2373H74.7612V16.3618H74.8858H74.7612V16.4863H75.7209H75.8455V8.76588H74.7612H74.6367V16.4863H74.7612V16.3618Z" fill="black"/>
<path d="M79.9795 16.3618H79.0188V9.80827H76.9321V8.89041H82.0662V9.80827H79.9795V16.3618Z" fill="black"/>
<path d="M79.9795 16.3618V16.2373H79.1433V9.68374H77.0567V9.01492H81.9417V9.68374H79.8549V16.3618H79.9795V16.2373V16.3618H80.104V9.93279H82.1908V8.8904V8.76588H76.8076V9.80826V9.93279H78.8943V16.4863H79.9795H80.104V16.3618H79.9795Z" fill="black"/>
<path d="M87.016 14.7707C87.569 15.3305 88.2457 15.6102 89.0458 15.6102C89.846 15.6102 90.5231 15.3305 91.0752 14.7707C91.6287 14.2108 91.906 13.4952 91.906 12.626C91.906 11.7568 91.6287 11.0412 91.0752 10.4813C90.5231 9.92148 89.846 9.6418 89.0458 9.6418C88.2457 9.6418 87.569 9.92148 87.016 10.4813C86.4639 11.0412 86.1867 11.7568 86.1867 12.626C86.1867 13.4952 86.4639 14.2108 87.016 14.7707ZM91.7853 15.3961C91.0508 16.1515 90.1373 16.5286 89.0458 16.5286C87.9533 16.5286 87.0403 16.1515 86.3073 15.3961C85.5723 14.6417 85.2065 13.7181 85.2065 12.626C85.2065 11.5339 85.5723 10.6102 86.3073 9.85585C87.0403 9.10037 87.9533 8.72294 89.0458 8.72294C90.1316 8.72294 91.0426 9.10236 91.7805 9.86071C92.5174 10.6191 92.8861 11.5408 92.8861 12.626C92.8861 13.7181 92.5183 14.6417 91.7853 15.3961Z" fill="black"/>
<path d="M87.016 14.7709L86.9275 14.8584C87.501 15.4407 88.2165 15.7365 89.0459 15.735C89.8747 15.7365 90.5912 15.4407 91.1638 14.8584C91.741 14.2757 92.0314 13.5217 92.0306 12.6262C92.0314 11.7308 91.741 10.9768 91.1638 10.394C90.5912 9.81175 89.8747 9.51601 89.0459 9.51751C88.2165 9.51601 87.501 9.81175 86.9275 10.394C86.3515 10.9768 86.0607 11.7308 86.0622 12.6262C86.0607 13.5217 86.3515 14.2757 86.9275 14.8584L87.016 14.7709L87.1045 14.6834C86.5763 14.1458 86.3122 13.4696 86.3112 12.6262C86.3122 11.7828 86.5763 11.1067 87.1045 10.5691C87.6376 10.0317 88.2743 9.76805 89.0459 9.76655C89.8168 9.76805 90.455 10.0317 90.9867 10.5691C91.5159 11.1067 91.78 11.7828 91.781 12.6262C91.78 13.4696 91.5159 14.1458 90.9867 14.6834C90.455 15.2208 89.8168 15.4844 89.0459 15.4859C88.2743 15.4844 87.6376 15.2208 87.1045 14.6834L87.016 14.7709ZM91.7854 15.3964L91.6964 15.3098C90.9823 16.0414 90.1092 16.4028 89.0459 16.4043C87.9821 16.4028 87.1089 16.0414 86.3962 15.3098L86.3929 15.306L86.3962 15.3098C85.6837 14.5758 85.3321 13.6905 85.3311 12.6262C85.3321 11.5619 85.6837 10.6767 86.3962 9.94263C87.1089 9.21105 87.9821 8.84919 89.0459 8.84769C90.1023 8.84919 90.9735 9.21255 91.6915 9.94798C92.4065 10.6854 92.7602 11.5693 92.7616 12.6262C92.7602 13.6905 92.4075 14.5758 91.6964 15.3098L91.7854 15.3964L91.8749 15.4829C92.6298 14.7076 93.0116 13.7459 93.0107 12.6262C93.0116 11.5129 92.6283 10.5532 91.8699 9.7744C91.1112 8.99264 90.1607 8.59728 89.0459 8.59865C87.9252 8.59728 86.9718 8.99077 86.2178 9.76954V9.76904C85.4615 10.5448 85.081 11.5065 85.082 12.6262C85.081 13.7459 85.4615 14.7076 86.2178 15.4834L86.2212 15.4869L86.2178 15.4829C86.9718 16.2617 87.9252 16.6543 89.0459 16.6533C90.1661 16.6543 91.1194 16.2617 91.8749 15.4829L91.7854 15.3964Z" fill="black"/>
<path d="M94.2334 16.3618V8.89041H95.4018L99.0329 14.7027H99.0742L99.0329 13.2628V8.89041H99.9936V16.3618H98.9916L95.1926 10.2679H95.1513L95.1926 11.7083V16.3618H94.2334Z" fill="black"/>
<path d="M94.2334 16.3618H94.3579V9.01492H95.3327L98.9638 14.8272H99.0742H99.2021L99.1574 13.2609V9.01492H99.8691V16.2373H99.0607L95.2617 10.1434H95.1513H95.0234L95.0681 11.7102V16.2373H94.2334V16.3618H94.3579H94.2334V16.4863H95.1926H95.3171V11.7062L95.2758 10.2645L95.1513 10.2679V10.3924H95.1926V10.2679L95.087 10.3341L98.9224 16.4863H99.9936H100.118V8.76588H99.0329H98.9084V13.2643L98.9497 14.706L99.0742 14.7027V14.5781H99.0329V14.7027L99.1385 14.6365L95.4708 8.76588H94.2334H94.1089V16.4863H94.2334V16.3618Z" fill="black"/>
<path d="M133.285 37.5309H135.608V21.964H133.285V37.5309ZM154.213 27.5715L151.55 34.3205H151.47L148.706 27.5715H146.203L150.348 37.0045L147.985 42.2516H150.409L156.797 27.5715H154.213ZM141.036 35.7628C140.274 35.7628 139.213 35.3823 139.213 34.4407C139.213 33.2392 140.536 32.7786 141.676 32.7786C142.699 32.7786 143.178 32.9988 143.799 33.2996C143.619 34.7413 142.377 35.7628 141.036 35.7628ZM141.316 27.2309C139.634 27.2309 137.892 27.9722 137.171 29.6144L139.233 30.4754C139.674 29.6144 140.494 29.3337 141.356 29.3337C142.558 29.3337 143.779 30.0551 143.799 31.3368V31.4968C143.378 31.2565 142.478 30.8961 141.376 30.8961C139.153 30.8961 136.89 32.1175 136.89 34.4007C136.89 36.4836 138.713 37.8256 140.755 37.8256C142.317 37.8256 143.178 37.1247 143.72 36.3037H143.799V37.5051H146.042V31.5367C146.042 28.7734 143.98 27.2309 141.316 27.2309ZM126.956 29.4665H123.651V24.1305H126.956C128.693 24.1305 129.68 25.5688 129.68 26.7984C129.68 28.0048 128.693 29.4665 126.956 29.4665ZM126.897 21.964H121.329V37.5309H123.651V31.6331H126.897C129.472 31.6331 132.003 29.7686 132.003 26.7984C132.003 23.8284 129.472 21.964 126.897 21.964ZM96.5365 35.7656C94.9313 35.7656 93.5873 34.4216 93.5873 32.5757C93.5873 30.7103 94.9313 29.3459 96.5365 29.3459C98.1213 29.3459 99.3651 30.7103 99.3651 32.5757C99.3651 34.4216 98.1213 35.7656 96.5365 35.7656ZM99.2046 28.4431H99.1242C98.6029 27.8214 97.5993 27.2597 96.3357 27.2597C93.6875 27.2597 91.2603 29.5866 91.2603 32.5757C91.2603 35.5448 93.6875 37.8519 96.3357 37.8519C97.5993 37.8519 98.6029 37.29 99.1242 36.6485H99.2046V37.4107C99.2046 39.4372 98.1213 40.5204 96.376 40.5204C94.9517 40.5204 94.069 39.497 93.7075 38.6345L91.6816 39.477C92.2634 40.8813 93.8082 42.6067 96.376 42.6067C99.1043 42.6067 101.411 41.0015 101.411 37.0897V27.5807H99.2046V28.4431ZM103.016 37.5309H105.343V21.9635H103.016V37.5309ZM108.774 32.3953C108.714 30.3489 110.359 29.306 111.542 29.306C112.466 29.306 113.248 29.7671 113.508 30.4297L108.774 32.3953ZM115.996 30.63C115.555 29.4461 114.21 27.2597 111.462 27.2597C108.733 27.2597 106.467 29.4062 106.467 32.5558C106.467 35.5249 108.714 37.8519 111.722 37.8519C114.15 37.8519 115.555 36.3673 116.136 35.5049L114.331 34.301C113.729 35.1839 112.906 35.7656 111.722 35.7656C110.539 35.7656 109.697 35.2238 109.155 34.1609L116.236 31.2317L115.996 30.63ZM59.5765 28.8847V31.1315H64.9528C64.7923 32.3953 64.371 33.318 63.729 33.96C62.9469 34.7427 61.723 35.6051 59.5765 35.6051C56.2663 35.6051 53.6786 32.9371 53.6786 29.627C53.6786 26.3169 56.2663 23.6485 59.5765 23.6485C61.362 23.6485 62.6657 24.3508 63.6287 25.2536L65.2135 23.6689C63.8696 22.3847 62.0839 21.4017 59.5765 21.4017C55.0425 21.4017 51.231 25.0931 51.231 29.627C51.231 34.1609 55.0425 37.8519 59.5765 37.8519C62.0241 37.8519 63.8696 37.0498 65.3138 35.5448C66.7984 34.0603 67.26 31.974 67.26 30.2891C67.26 29.7671 67.22 29.2861 67.1393 28.8847H59.5765ZM73.3723 35.7656C71.7671 35.7656 70.3828 34.4416 70.3828 32.5558C70.3828 30.65 71.7671 29.3459 73.3723 29.3459C74.9769 29.3459 76.3612 30.65 76.3612 32.5558C76.3612 34.4416 74.9769 35.7656 73.3723 35.7656ZM73.3723 27.2597C70.443 27.2597 68.0557 29.4864 68.0557 32.5558C68.0557 35.6051 70.443 37.8519 73.3723 37.8519C76.301 37.8519 78.6883 35.6051 78.6883 32.5558C78.6883 29.4864 76.301 27.2597 73.3723 27.2597ZM84.9694 35.7656C83.3648 35.7656 81.9804 34.4416 81.9804 32.5558C81.9804 30.65 83.3648 29.3459 84.9694 29.3459C86.5742 29.3459 87.9585 30.65 87.9585 32.5558C87.9585 34.4416 86.5742 35.7656 84.9694 35.7656ZM84.9694 27.2597C82.0403 27.2597 79.6534 29.4864 79.6534 32.5558C79.6534 35.6051 82.0403 37.8519 84.9694 37.8519C87.8982 37.8519 90.2856 35.6051 90.2856 32.5558C90.2856 29.4864 87.8982 27.2597 84.9694 27.2597Z" fill="black"/>
<path d="M13.2118 40.5063L13.1193 40.4178C12.7569 40.0344 12.543 39.4391 12.543 38.6681V38.8496V11.31C12.543 11.3075 12.543 11.3056 12.543 11.3036C12.543 11.306 12.543 11.308 12.543 11.3105V11.4924C12.543 10.6576 12.7924 10.0288 13.2103 9.6517L28.6385 25.0795L13.2118 40.5063ZM12.543 11.3021C12.543 11.2335 12.5448 11.1669 12.5483 11.1013C12.5448 11.1664 12.543 11.2335 12.543 11.3021ZM12.5483 11.0983C12.5483 11.0974 12.5483 11.0964 12.5487 11.0954C12.5483 11.0964 12.5483 11.0974 12.5483 11.0983ZM12.5487 11.0896C12.5487 11.0891 12.5487 11.0886 12.5487 11.0881C12.5487 11.0886 12.5487 11.0891 12.5487 11.0896Z" fill="url(#paint0_linear_1865_5930)"/>
<path d="M33.7801 30.406L33.8974 30.3394L39.9902 26.8775C40.5711 26.5473 40.9583 26.1469 41.1514 25.7233C40.9588 26.1469 40.5715 26.5478 39.9902 26.878L33.8974 30.3399L33.7801 30.406ZM33.7816 30.2236L28.6382 25.0793L33.7811 19.9358L39.9902 23.4633C40.7787 23.9114 41.2214 24.4888 41.2954 25.0788C41.2954 25.0793 41.2954 25.0803 41.2954 25.0811C41.2214 25.6698 40.7787 26.2477 39.9902 26.6956L33.7816 30.2236Z" fill="url(#paint1_linear_1865_5930)"/>
<path d="M14.3114 41.0938C13.8804 41.0938 13.5044 40.9537 13.2111 40.689L13.2116 40.6885C13.5049 40.9532 13.8814 41.0938 14.3124 41.0938C14.3498 41.0938 14.3878 41.0928 14.4262 41.0909C14.3873 41.0928 14.3488 41.0938 14.3114 41.0938ZM14.3119 40.9113C13.8809 40.9118 13.5049 40.7712 13.2116 40.5066V40.5062L28.6383 25.0794L33.7818 30.2237L15.707 40.4935C15.2069 40.7771 14.7331 40.9113 14.3119 40.9113ZM13.2073 40.6857C13.18 40.6609 13.1532 40.6346 13.127 40.6074L13.2073 40.6857Z" fill="url(#paint2_linear_1865_5930)"/>
<path d="M28.6381 25.0793L13.21 9.65152C13.5032 9.38741 13.8788 9.24732 14.3093 9.24732C14.7315 9.24732 15.2057 9.38206 15.7068 9.66609L33.7811 19.9359L28.6381 25.0793ZM33.8974 19.8197L15.7068 9.48429C15.2057 9.20012 14.7315 9.06539 14.3093 9.06539C14.3073 9.06539 14.3059 9.06539 14.3039 9.06539C14.3064 9.06539 14.3083 9.06539 14.3112 9.06539C14.7325 9.06539 15.2062 9.19963 15.7068 9.48379L33.8974 19.8197Z" fill="url(#paint3_linear_1865_5930)"/>
<path d="M14.4263 41.0908C14.8178 41.0684 15.2512 40.9337 15.707 40.6754L33.7803 30.4061L15.707 40.6754C15.2516 40.9342 14.8178 41.0684 14.4263 41.0908ZM13.2112 40.689L13.2073 40.6856C13.2087 40.6866 13.2102 40.688 13.2112 40.689ZM13.127 40.6073L13.1191 40.5996V40.5991C13.1221 40.6019 13.1245 40.6048 13.127 40.6073Z" fill="white"/>
<path d="M33.7803 30.406L33.8976 30.3394L33.7803 30.406Z" fill="url(#paint4_linear_1865_5930)"/>
<path d="M14.3124 41.0938C13.8815 41.0938 13.5049 40.9532 13.2117 40.6885L13.2112 40.689C13.2102 40.6881 13.2087 40.6867 13.2073 40.6857L13.127 40.6074C13.1245 40.6049 13.1221 40.602 13.1191 40.5991L13.2117 40.5066C13.5049 40.7712 13.881 40.9118 14.312 40.9113C14.7331 40.9113 15.2069 40.7771 15.707 40.4935L33.7818 30.2237L33.8976 30.3395L33.7803 30.4062L15.707 40.6755C15.2512 40.9337 14.8178 41.0685 14.4263 41.0909C14.3878 41.0928 14.3498 41.0938 14.3124 41.0938Z" fill="url(#paint5_linear_1865_5930)"/>
<path d="M13.1193 40.5996C12.7569 40.2162 12.543 39.6209 12.543 38.8499V38.8494C12.543 39.6209 12.7569 40.2157 13.1193 40.5991V40.5996Z" fill="white"/>
<path d="M13.1193 40.5991C12.7569 40.2157 12.543 39.6209 12.543 38.8494V38.668C12.543 39.4389 12.7569 40.0343 13.1193 40.4177L13.2118 40.5062L13.1193 40.5991Z" fill="url(#paint6_linear_1865_5930)"/>
<path d="M13.1191 40.5991L13.2117 40.5062V40.5066L13.1191 40.5991Z" fill="url(#paint7_linear_1865_5930)"/>
<path d="M41.1514 25.7234C41.2471 25.5132 41.2953 25.2973 41.2953 25.0812C41.2953 25.0808 41.2953 25.0803 41.2953 25.0803C41.2953 25.2968 41.2471 25.5127 41.1514 25.7234Z" fill="white"/>
<path d="M33.8975 30.3396L33.7817 30.2238L39.9903 26.6958C40.7788 26.2479 41.2215 25.67 41.2955 25.0813C41.2955 25.2974 41.2473 25.5133 41.1515 25.7235C40.9584 26.1471 40.5712 26.5475 39.9903 26.8777L33.8975 30.3396Z" fill="url(#paint8_linear_1865_5930)"/>
<path d="M41.2954 25.0793V25.0788C41.2949 24.4275 40.8596 23.7762 39.9903 23.282L33.8975 19.8201H33.897L33.8975 19.8197L39.9903 23.2815C40.8606 23.7757 41.2964 24.428 41.2954 25.0793Z" fill="#404040"/>
<path d="M41.2955 25.0789C41.2215 24.4889 40.7788 23.9115 39.9903 23.4634L33.7812 19.9359L33.8971 19.8201H33.8976L39.9903 23.282C40.8596 23.7762 41.295 24.4275 41.2955 25.0789Z" fill="url(#paint9_linear_1865_5930)"/>
<path d="M12.543 11.3035C12.543 11.303 12.543 11.3025 12.543 11.302C12.543 11.3025 12.543 11.303 12.543 11.3035ZM12.5483 11.1011C12.5483 11.1001 12.5483 11.0991 12.5483 11.0981C12.5483 11.0991 12.5483 11.1001 12.5483 11.1011ZM12.5487 11.0953C12.5487 11.0933 12.5487 11.0914 12.5487 11.0894C12.5487 11.0914 12.5487 11.0933 12.5487 11.0953ZM12.5487 11.0879C12.6208 9.80869 13.3164 9.06977 14.3004 9.06541C13.8737 9.0679 13.5022 9.20799 13.2113 9.47011V9.46961L13.2078 9.4731C13.1772 9.50074 13.148 9.53001 13.1193 9.56014C12.7924 9.90594 12.5862 10.424 12.5487 11.0879Z" fill="#404040"/>
<path d="M12.543 11.4922V11.3103C12.543 11.3078 12.543 11.3058 12.543 11.3034C12.543 11.3029 12.543 11.3024 12.543 11.3019C12.543 11.2333 12.5448 11.1662 12.5483 11.1011C12.5483 11.1001 12.5483 11.0991 12.5483 11.0981C12.5483 11.0972 12.5483 11.0962 12.5487 11.0952C12.5487 11.0932 12.5487 11.0913 12.5487 11.0894C12.5487 11.0889 12.5487 11.0884 12.5487 11.0879C12.5862 10.4239 12.7924 9.90588 13.1193 9.56008L13.2103 9.65148C12.7924 10.0285 12.543 10.6574 12.543 11.4922ZM13.2078 9.47304L13.2113 9.46955C13.2103 9.47105 13.2088 9.47204 13.2078 9.47304Z" fill="url(#paint10_linear_1865_5930)"/>
<path d="M33.7813 19.936L15.707 9.66622C15.2059 9.38218 14.7317 9.24744 14.3095 9.24744C13.879 9.24744 13.5034 9.38753 13.2102 9.65165L13.1191 9.56025C13.1479 9.53011 13.177 9.50085 13.2077 9.4732C13.2087 9.47221 13.2102 9.47121 13.2112 9.47022C13.502 9.20809 13.8736 9.06801 14.3002 9.06552C14.3012 9.06552 14.3026 9.06552 14.3041 9.06552C14.3061 9.06552 14.3075 9.06552 14.3095 9.06552C14.7317 9.06552 15.2059 9.20025 15.707 9.48441L33.8976 19.8199L33.8971 19.8202L33.7813 19.936Z" fill="url(#paint11_linear_1865_5930)"/>
</g>
<defs>
<linearGradient id="paint0_linear_1865_5930" x1="27.2705" y1="11.0195" x2="6.37233" y2="31.9176" gradientUnits="userSpaceOnUse">
<stop stop-color="#00A0FF"/>
<stop offset="0.00657445" stop-color="#00A1FF"/>
<stop offset="0.2601" stop-color="#00BEFF"/>
<stop offset="0.5122" stop-color="#00D2FF"/>
<stop offset="0.7604" stop-color="#00DFFF"/>
<stop offset="1" stop-color="#00E3FF"/>
</linearGradient>
<linearGradient id="paint1_linear_1865_5930" x1="42.2561" y1="25.08" x2="12.1252" y2="25.08" gradientUnits="userSpaceOnUse">
<stop stop-color="#FFE000"/>
<stop offset="0.4087" stop-color="#FFBD00"/>
<stop offset="0.7754" stop-color="#FFA500"/>
<stop offset="1" stop-color="#FF9C00"/>
</linearGradient>
<linearGradient id="paint2_linear_1865_5930" x1="31.0399" y1="27.9376" x2="2.70047" y2="56.277" gradientUnits="userSpaceOnUse">
<stop stop-color="#FF3A44"/>
<stop offset="1" stop-color="#C31162"/>
</linearGradient>
<linearGradient id="paint3_linear_1865_5930" x1="9.21114" y1="0.393085" x2="21.8658" y2="13.0478" gradientUnits="userSpaceOnUse">
<stop stop-color="#32A071"/>
<stop offset="0.0685" stop-color="#2DA771"/>
<stop offset="0.4762" stop-color="#15CF74"/>
<stop offset="0.8009" stop-color="#06E775"/>
<stop offset="1" stop-color="#00F076"/>
</linearGradient>
<linearGradient id="paint4_linear_1865_5930" x1="42.2557" y1="25.0802" x2="12.1265" y2="25.0802" gradientUnits="userSpaceOnUse">
<stop stop-color="#CCB300"/>
<stop offset="0.4087" stop-color="#CC9700"/>
<stop offset="0.7754" stop-color="#CC8400"/>
<stop offset="1" stop-color="#CC7D00"/>
</linearGradient>
<linearGradient id="paint5_linear_1865_5930" x1="31.0399" y1="27.9376" x2="2.70049" y2="56.277" gradientUnits="userSpaceOnUse">
<stop stop-color="#CC2E36"/>
<stop offset="1" stop-color="#9C0E4E"/>
</linearGradient>
<linearGradient id="paint6_linear_1865_5930" x1="27.2705" y1="11.0194" x2="6.37239" y2="31.9176" gradientUnits="userSpaceOnUse">
<stop stop-color="#008DE0"/>
<stop offset="0.00657445" stop-color="#008DE0"/>
<stop offset="0.2601" stop-color="#00A7E0"/>
<stop offset="0.5122" stop-color="#00B8E0"/>
<stop offset="0.7604" stop-color="#00C4E0"/>
<stop offset="1" stop-color="#00C7E0"/>
</linearGradient>
<linearGradient id="paint7_linear_1865_5930" x1="31.0404" y1="27.938" x2="2.70188" y2="56.2782" gradientUnits="userSpaceOnUse">
<stop stop-color="#E0333C"/>
<stop offset="1" stop-color="#AB0F56"/>
</linearGradient>
<linearGradient id="paint8_linear_1865_5930" x1="42.2562" y1="25.0802" x2="12.1253" y2="25.0802" gradientUnits="userSpaceOnUse">
<stop stop-color="#E0C500"/>
<stop offset="0.4087" stop-color="#E0A600"/>
<stop offset="0.7754" stop-color="#E09100"/>
<stop offset="1" stop-color="#E08900"/>
</linearGradient>
<linearGradient id="paint9_linear_1865_5930" x1="42.2562" y1="25.0801" x2="12.1253" y2="25.0801" gradientUnits="userSpaceOnUse">
<stop stop-color="#FFE840"/>
<stop offset="0.4087" stop-color="#FFCE40"/>
<stop offset="0.7754" stop-color="#FFBC40"/>
<stop offset="1" stop-color="#FFB540"/>
</linearGradient>
<linearGradient id="paint10_linear_1865_5930" x1="27.2705" y1="11.0192" x2="6.37233" y2="31.9174" gradientUnits="userSpaceOnUse">
<stop stop-color="#40B8FF"/>
<stop offset="0.00657445" stop-color="#40B9FF"/>
<stop offset="0.2601" stop-color="#40CEFF"/>
<stop offset="0.5122" stop-color="#40DDFF"/>
<stop offset="0.7604" stop-color="#40E7FF"/>
<stop offset="1" stop-color="#40EAFF"/>
</linearGradient>
<linearGradient id="paint11_linear_1865_5930" x1="9.21135" y1="0.393207" x2="21.866" y2="13.0479" gradientUnits="userSpaceOnUse">
<stop stop-color="#65B895"/>
<stop offset="0.0685" stop-color="#62BD95"/>
<stop offset="0.4762" stop-color="#50DB97"/>
<stop offset="0.8009" stop-color="#44ED98"/>
<stop offset="1" stop-color="#40F498"/>
</linearGradient>
<clipPath id="clip0_1865_5930">
<rect width="168.48" height="50.0584" fill="white" transform="translate(0 0.0493164)"/>
</clipPath>
</defs>
</svg>
