<svg width="168" height="57" viewBox="0 0 168 57" fill="none" xmlns="http://www.w3.org/2000/svg">
<g clip-path="url(#clip0_1865_5929)">
<path d="M11.8559 54.9286C11.4281 54.9286 11.0107 54.9231 10.5863 54.9136C9.70717 54.9021 8.83005 54.8256 7.96219 54.6846C7.15295 54.5452 6.36902 54.286 5.63624 53.9154C4.91019 53.5479 4.24797 53.066 3.67495 52.4881C3.09364 51.9171 2.60967 51.2549 2.24223 50.5276C1.87073 49.7955 1.61364 49.0109 1.47989 48.201C1.33546 47.3307 1.25732 46.4507 1.24614 45.5686C1.23724 45.2725 1.22559 44.2867 1.22559 44.2867V11.8551C1.22559 11.8551 1.238 10.8844 1.24621 10.5992C1.25692 9.71851 1.3346 8.83989 1.4786 7.97097C1.61259 7.15882 1.86989 6.37192 2.24158 5.6375C2.60768 4.9107 3.08896 4.24793 3.66677 3.67487C4.24393 3.09637 4.90827 2.61199 5.63556 2.2394C6.36664 1.87 7.1491 1.61257 7.9567 1.47574C8.82741 1.33334 9.70757 1.25634 10.5898 1.24541L11.8566 1.22827H156.136L157.418 1.2461C158.293 1.25649 159.165 1.33279 160.027 1.47437C160.843 1.61291 161.634 1.87214 162.373 2.24351C163.83 2.9944 165.016 4.18237 165.764 5.64092C166.13 6.37027 166.383 7.15076 166.515 7.95589C166.661 8.83194 166.742 9.71747 166.759 10.6054C166.763 11.003 166.763 11.4301 166.763 11.8551C166.774 12.3816 166.774 12.8827 166.774 13.3879V42.7703C166.774 43.2803 166.774 43.778 166.763 44.2798C166.763 44.7363 166.763 45.1546 166.758 45.585C166.741 46.4571 166.661 47.3268 166.518 48.1872C166.387 49.003 166.131 49.7937 165.76 50.5318C165.39 51.2512 164.908 51.9077 164.334 52.4772C163.76 53.0581 163.097 53.5428 162.369 53.9127C161.632 54.2862 160.842 54.5464 160.027 54.6846C159.16 54.8263 158.282 54.9029 157.403 54.9136C156.992 54.9231 156.561 54.9286 156.143 54.9286L154.621 54.9314L11.8559 54.9286Z" fill="white"/>
<path d="M35.0934 27.9248C35.1091 26.7062 35.4328 25.5115 36.0343 24.4516C36.6359 23.3918 37.4957 22.5013 38.5339 21.863C37.8744 20.9211 37.0043 20.146 35.9928 19.5992C34.9813 19.0523 33.8563 18.7489 32.707 18.713C30.2554 18.4556 27.8787 20.1799 26.6294 20.1799C25.3559 20.1799 23.4325 18.7385 21.3612 18.7811C20.0214 18.8244 18.7158 19.214 17.5713 19.9119C16.4269 20.6099 15.4828 21.5923 14.831 22.7636C12.0075 27.6521 14.1136 34.8366 16.8183 38.7881C18.1715 40.723 19.753 42.8844 21.8224 42.8078C23.8474 42.7238 24.6038 41.5165 27.0481 41.5165C29.4698 41.5165 30.1794 42.8078 32.2908 42.759C34.4637 42.7238 35.8328 40.8155 37.1386 38.8622C38.1108 37.4835 38.859 35.9598 39.3554 34.3474C38.0929 33.8134 37.0156 32.9197 36.2577 31.7776C35.4998 30.6354 35.0949 29.2955 35.0934 27.9248Z" fill="black"/>
<path d="M31.1055 16.1134C32.2903 14.6912 32.874 12.863 32.7326 11.0173C30.9226 11.2074 29.2506 12.0725 28.0498 13.4403C27.4627 14.1084 27.013 14.8858 26.7265 15.7278C26.44 16.5699 26.3222 17.4601 26.38 18.3477C27.2854 18.357 28.1811 18.1608 28.9996 17.7738C29.8181 17.3868 30.5382 16.8191 31.1055 16.1134Z" fill="black"/>
<path d="M59.3885 38.1024H52.7431L51.1472 42.8146H48.3325L54.6269 25.3806H57.5513L63.8457 42.8146H60.983L59.3885 38.1024ZM53.4314 35.9279H58.6989L56.1022 28.2804H56.0294L53.4314 35.9279Z" fill="black"/>
<path d="M77.4395 36.4594C77.4395 40.4094 75.3254 42.9471 72.135 42.9471C71.3268 42.9894 70.5231 42.8032 69.8158 42.4099C69.1085 42.0166 68.5263 41.4321 68.1357 40.7233H68.0754V47.0191H65.4663V30.1034H67.9917V32.2175H68.0397C68.4482 31.5121 69.0403 30.9306 69.753 30.5349C70.4656 30.1392 71.2723 29.9441 72.087 29.9704C75.3131 29.9704 77.4395 32.5205 77.4395 36.4594ZM74.7578 36.4594C74.7578 33.886 73.4279 32.1942 71.3988 32.1942C69.4053 32.1942 68.0644 33.9217 68.0644 36.4594C68.0644 39.0205 69.4053 40.7357 71.3988 40.7357C73.4279 40.7357 74.7577 39.0562 74.7577 36.4594H74.7578Z" fill="black"/>
<path d="M91.4299 36.4594C91.4299 40.4094 89.3151 42.9471 86.1248 42.9471C85.3166 42.9894 84.5128 42.8032 83.8055 42.4099C83.0982 42.0166 82.516 41.4321 82.1255 40.7233H82.0651V47.0191H79.4561V30.1034H81.9815V32.2175H82.0295C82.4379 31.5121 83.03 30.9306 83.7427 30.5349C84.4554 30.1392 85.262 29.9441 86.0767 29.9704C89.3028 29.9704 91.4299 32.5205 91.4299 36.4594ZM88.7475 36.4594C88.7475 33.886 87.4176 32.1942 85.3885 32.1942C83.3951 32.1942 82.0542 33.9217 82.0542 36.4594C82.0542 39.0205 83.3951 40.7357 85.3885 40.7357C87.4176 40.7357 88.7475 39.0562 88.7475 36.4594Z" fill="black"/>
<path d="M100.675 37.957C100.868 39.6859 102.548 40.821 104.843 40.821C107.042 40.821 108.624 39.6858 108.624 38.1269C108.624 36.7737 107.67 35.9635 105.41 35.4082L103.151 34.8639C99.9495 34.0906 98.4633 32.5935 98.4633 30.164C98.4633 27.156 101.085 25.0898 104.806 25.0898C108.491 25.0898 111.016 27.156 111.101 30.164H108.468C108.31 28.4242 106.872 27.374 104.77 27.374C102.668 27.374 101.23 28.4365 101.23 29.983C101.23 31.2156 102.149 31.9409 104.396 32.4961L106.316 32.9677C109.893 33.8136 111.378 35.2505 111.378 37.8006C111.378 41.0622 108.782 43.1051 104.649 43.1051C100.783 43.1051 98.1725 41.1102 98.0039 37.9569L100.675 37.957Z" fill="black"/>
<path d="M117.012 27.0967V30.1047H119.429V32.1708H117.012V39.1782C117.012 40.2667 117.496 40.774 118.559 40.774C118.845 40.769 119.132 40.7489 119.417 40.7137V42.7675C118.939 42.8567 118.454 42.8971 117.968 42.8881C115.394 42.8881 114.391 41.9215 114.391 39.4564V32.1708H112.542V30.1047H114.391V27.0967H117.012Z" fill="black"/>
<path d="M120.828 36.4609C120.828 32.4616 123.183 29.9485 126.856 29.9485C130.541 29.9485 132.886 32.4615 132.886 36.4609C132.886 40.4711 130.554 42.9732 126.856 42.9732C123.16 42.9732 120.828 40.4711 120.828 36.4609ZM130.227 36.4609C130.227 33.7174 128.97 32.0983 126.856 32.0983C124.742 32.0983 123.485 33.7298 123.485 36.4609C123.485 39.2152 124.742 40.8221 126.856 40.8221C128.97 40.8221 130.227 39.2152 130.227 36.4609H130.227Z" fill="black"/>
<path d="M135.037 30.1032H137.526V32.2667H137.586C137.754 31.591 138.15 30.9939 138.707 30.5757C139.264 30.1574 139.947 29.9437 140.643 29.9702C140.944 29.9692 141.244 30.0018 141.537 30.0676V32.508C141.158 32.392 140.762 32.3388 140.365 32.3503C139.986 32.335 139.608 32.4018 139.257 32.5462C138.906 32.6907 138.591 32.9093 138.333 33.1871C138.075 33.465 137.879 33.7954 137.761 34.1557C137.642 34.5161 137.603 34.8978 137.646 35.2747V42.814H135.037L135.037 30.1032Z" fill="black"/>
<path d="M153.566 39.0823C153.215 41.3897 150.968 42.9732 148.093 42.9732C144.396 42.9732 142.101 40.4958 142.101 36.5212C142.101 32.5342 144.408 29.9485 147.984 29.9485C151.5 29.9485 153.712 32.3642 153.712 36.2182V37.1121H144.734V37.2698C144.693 37.7375 144.751 38.2088 144.906 38.6522C145.061 39.0956 145.308 39.5011 145.631 39.8416C145.955 40.1821 146.347 40.4499 146.782 40.6272C147.217 40.8046 147.684 40.8873 148.154 40.8701C148.77 40.9278 149.389 40.785 149.918 40.4629C150.447 40.1408 150.857 39.6566 151.089 39.0822L153.566 39.0823ZM144.747 35.2886H151.101C151.125 34.868 151.061 34.4471 150.914 34.0523C150.767 33.6575 150.54 33.2973 150.247 32.9944C149.955 32.6915 149.602 32.4524 149.213 32.292C148.823 32.1317 148.405 32.0536 147.984 32.0626C147.559 32.0601 147.138 32.1417 146.744 32.3028C146.351 32.4639 145.994 32.7012 145.693 33.0012C145.392 33.3011 145.153 33.6577 144.991 34.0503C144.829 34.4429 144.746 34.8638 144.747 35.2886V35.2886Z" fill="black"/>
<path d="M53.1054 12.258C53.6524 12.2188 54.2013 12.3014 54.7125 12.5C55.2237 12.6985 55.6844 13.0081 56.0615 13.4063C56.4386 13.8045 56.7226 14.2814 56.893 14.8026C57.0635 15.3239 57.1161 15.8764 57.0471 16.4205C57.0471 19.0967 55.6007 20.6351 53.1054 20.6351H50.0796V12.258H53.1054ZM51.3807 19.4504H52.9601C53.351 19.4737 53.7421 19.4097 54.1051 19.2628C54.4681 19.1159 54.7937 18.8899 55.0583 18.6014C55.323 18.3128 55.5199 17.9688 55.6349 17.5945C55.7498 17.2201 55.7798 16.8249 55.7227 16.4375C55.7757 16.0517 55.7426 15.6589 55.6259 15.2873C55.5092 14.9158 55.3118 14.5746 55.0477 14.2883C54.7837 14.002 54.4596 13.7776 54.0987 13.6313C53.7378 13.485 53.349 13.4203 52.9601 13.4418H51.3807V19.4504Z" fill="black"/>
<path d="M58.517 17.4725C58.4773 17.057 58.5248 16.6379 58.6566 16.2419C58.7883 15.8459 59.0014 15.4818 59.2821 15.1729C59.5628 14.8641 59.9049 14.6173 60.2866 14.4485C60.6682 14.2796 61.081 14.1924 61.4983 14.1924C61.9157 14.1924 62.3284 14.2796 62.7101 14.4485C63.0917 14.6173 63.4339 14.8641 63.7146 15.1729C63.9953 15.4818 64.2084 15.8459 64.3401 16.2419C64.4718 16.6379 64.5194 17.057 64.4796 17.4725C64.5201 17.8884 64.4732 18.3081 64.3418 18.7048C64.2104 19.1014 63.9974 19.4662 63.7167 19.7756C63.4359 20.0851 63.0935 20.3323 62.7114 20.5016C62.3294 20.6708 61.9162 20.7582 61.4983 20.7582C61.0805 20.7582 60.6673 20.6708 60.2852 20.5016C59.9032 20.3323 59.5608 20.0851 59.28 19.7756C58.9992 19.4662 58.7863 19.1014 58.6549 18.7048C58.5235 18.3081 58.4765 17.8884 58.517 17.4725ZM63.1963 17.4725C63.1963 16.1022 62.5807 15.3008 61.5004 15.3008C60.4159 15.3008 59.8058 16.1022 59.8058 17.4725C59.8058 18.8538 60.4159 19.649 61.5004 19.649C62.5808 19.649 63.1964 18.8483 63.1964 17.4725H63.1963Z" fill="black"/>
<path d="M72.4055 20.635H71.1113L69.8047 15.979H69.706L68.4049 20.635H67.1229L65.3804 14.3132H66.6458L67.7783 19.1371H67.8715L69.1713 14.3132H70.3682L71.6679 19.1371H71.7666L72.8936 14.3132H74.1412L72.4055 20.635Z" fill="black"/>
<path d="M75.6069 14.3128H76.808V15.3171H76.9012C77.0593 14.9564 77.3261 14.654 77.6643 14.4521C78.0024 14.2502 78.3952 14.1589 78.7877 14.1908C79.0953 14.1677 79.4042 14.214 79.6914 14.3265C79.9787 14.4389 80.2369 14.6146 80.4471 14.8404C80.6572 15.0662 80.8139 15.3364 80.9054 15.631C80.9969 15.9256 81.021 16.2369 80.9759 16.5421V20.6346H79.7282V16.8554C79.7282 15.8395 79.2868 15.3342 78.3641 15.3342C78.1552 15.3245 77.9467 15.3601 77.7529 15.4384C77.5591 15.5168 77.3845 15.6362 77.2411 15.7884C77.0978 15.9405 76.989 16.1219 76.9223 16.32C76.8555 16.5182 76.8324 16.7284 76.8546 16.9363V20.6346H75.6069L75.6069 14.3128Z" fill="black"/>
<path d="M82.9639 11.8455H84.2115V20.6351H82.9639V11.8455Z" fill="black"/>
<path d="M85.9457 17.4704C85.906 17.0549 85.9536 16.6357 86.0853 16.2397C86.2171 15.8437 86.4302 15.4796 86.7109 15.1707C86.9917 14.8619 87.3338 14.6151 87.7155 14.4463C88.0972 14.2774 88.51 14.1902 88.9273 14.1902C89.3447 14.1902 89.7575 14.2774 90.1392 14.4463C90.5208 14.6151 90.863 14.8619 91.1438 15.1707C91.4245 15.4796 91.6376 15.8437 91.7693 16.2397C91.9011 16.6357 91.9487 17.0549 91.909 17.4704C91.9494 17.8863 91.9024 18.3061 91.771 18.7027C91.6395 19.0993 91.4266 19.4641 91.1458 19.7735C90.865 20.083 90.5225 20.3303 90.1405 20.4995C89.7584 20.6687 89.3452 20.7561 88.9273 20.7561C88.5095 20.7561 88.0963 20.6687 87.7142 20.4995C87.3321 20.3303 86.9897 20.083 86.7089 19.7735C86.4281 19.4641 86.2151 19.0993 86.0837 18.7027C85.9523 18.3061 85.9053 17.8863 85.9457 17.4704ZM90.625 17.4704C90.625 16.1001 90.0094 15.2987 88.9291 15.2987C87.8446 15.2987 87.2345 16.1001 87.2345 17.4704C87.2345 18.8517 87.8446 19.6469 88.9291 19.6469C90.0094 19.6469 90.625 18.8462 90.625 17.4704H90.625Z" fill="black"/>
<path d="M93.2222 18.8484C93.2222 17.7104 94.0695 17.0544 95.5735 16.9612L97.2859 16.8624V16.3168C97.2859 15.6491 96.8444 15.2721 95.9916 15.2721C95.2952 15.2721 94.8126 15.5278 94.6741 15.9747H93.4662C93.5937 14.8889 94.6151 14.1924 96.0492 14.1924C97.6341 14.1924 98.528 14.9814 98.528 16.3168V20.6362H97.327V19.7478H97.2283C97.0279 20.0665 96.7466 20.3263 96.413 20.5006C96.0794 20.675 95.7055 20.7577 95.3294 20.7404C95.064 20.768 94.7958 20.7396 94.542 20.6572C94.2883 20.5748 94.0546 20.4402 93.856 20.2619C93.6575 20.0836 93.4985 19.8658 93.3893 19.6223C93.2802 19.3788 93.2232 19.1152 93.2222 18.8484ZM97.2859 18.3082V17.7797L95.7421 17.8784C94.8715 17.9366 94.4766 18.2328 94.4766 18.7901C94.4766 19.3591 94.9702 19.6902 95.6489 19.6902C95.8478 19.7103 96.0487 19.6902 96.2396 19.6311C96.4305 19.572 96.6076 19.4751 96.7604 19.3462C96.9131 19.2173 97.0383 19.0589 97.1286 18.8806C97.2189 18.7023 97.2724 18.5076 97.2859 18.3082Z" fill="black"/>
<path d="M100.168 17.4715C100.168 15.4739 101.195 14.2084 102.792 14.2084C103.187 14.1902 103.579 14.2849 103.923 14.4813C104.266 14.6777 104.546 14.9677 104.731 15.3175H104.824V11.8455H106.072V20.6351H104.876V19.6363H104.777C104.579 19.9838 104.288 20.2702 103.939 20.4646C103.589 20.659 103.192 20.754 102.792 20.7393C101.184 20.7394 100.168 19.4739 100.168 17.4715ZM101.457 17.4715C101.457 18.8123 102.089 19.6192 103.146 19.6192C104.197 19.6192 104.847 18.8007 104.847 17.477C104.847 16.1594 104.191 15.3293 103.146 15.3293C102.096 15.3293 101.457 16.1416 101.457 17.4715H101.457Z" fill="black"/>
<path d="M111.233 17.4725C111.194 17.057 111.241 16.6379 111.373 16.2419C111.505 15.8459 111.718 15.4818 111.998 15.1729C112.279 14.8641 112.621 14.6173 113.003 14.4485C113.385 14.2796 113.797 14.1924 114.215 14.1924C114.632 14.1924 115.045 14.2796 115.426 14.4485C115.808 14.6173 116.15 14.8641 116.431 15.1729C116.712 15.4818 116.925 15.8459 117.056 16.2419C117.188 16.6379 117.236 17.057 117.196 17.4725C117.236 17.8884 117.189 18.3081 117.058 18.7048C116.927 19.1014 116.714 19.4662 116.433 19.7756C116.152 20.0851 115.81 20.3323 115.428 20.5016C115.046 20.6708 114.632 20.7582 114.215 20.7582C113.797 20.7582 113.384 20.6708 113.002 20.5016C112.619 20.3323 112.277 20.0851 111.996 19.7756C111.716 19.4662 111.503 19.1014 111.371 18.7048C111.24 18.3081 111.193 17.8884 111.233 17.4725ZM115.913 17.4725C115.913 16.1022 115.297 15.3008 114.217 15.3008C113.132 15.3008 112.522 16.1022 112.522 17.4725C112.522 18.8538 113.132 19.649 114.217 19.649C115.297 19.649 115.913 18.8483 115.913 17.4725Z" fill="black"/>
<path d="M118.87 14.3128H120.071V15.3171H120.164C120.323 14.9564 120.589 14.654 120.927 14.4521C121.266 14.2502 121.658 14.1589 122.051 14.1908C122.359 14.1677 122.667 14.214 122.955 14.3265C123.242 14.4389 123.5 14.6146 123.71 14.8404C123.92 15.0662 124.077 15.3364 124.169 15.631C124.26 15.9256 124.284 16.2369 124.239 16.5421V20.6346H122.991V16.8554C122.991 15.8395 122.55 15.3342 121.627 15.3342C121.418 15.3245 121.21 15.3601 121.016 15.4384C120.822 15.5168 120.648 15.6362 120.504 15.7884C120.361 15.9405 120.252 16.1219 120.185 16.32C120.119 16.5182 120.096 16.7284 120.118 16.9363V20.6346H118.87V14.3128Z" fill="black"/>
<path d="M131.289 12.7393V14.342H132.658V15.3929H131.289V18.6436C131.289 19.3058 131.562 19.5958 132.183 19.5958C132.342 19.5952 132.5 19.5856 132.658 19.567V20.6062C132.434 20.6463 132.207 20.6676 131.98 20.6699C130.592 20.6699 130.04 20.1819 130.04 18.963V15.3928H129.036V14.3419H130.04V12.7393H131.289Z" fill="black"/>
<path d="M134.363 11.8455H135.599V15.3292H135.698C135.864 14.9652 136.138 14.6611 136.483 14.4584C136.828 14.2558 137.227 14.1644 137.626 14.1968C137.932 14.1801 138.238 14.2312 138.522 14.3464C138.806 14.4616 139.061 14.638 139.269 14.8631C139.477 15.0882 139.632 15.3564 139.725 15.6486C139.817 15.9409 139.844 16.2498 139.803 16.5536V20.6351H138.554V16.8613C138.554 15.8516 138.084 15.3402 137.202 15.3402C136.988 15.3226 136.772 15.3521 136.57 15.4266C136.368 15.5011 136.185 15.6187 136.034 15.7714C135.882 15.9241 135.766 16.108 135.693 16.3104C135.619 16.5127 135.591 16.7286 135.61 16.9429V20.6351H134.363L134.363 11.8455Z" fill="black"/>
<path d="M147.078 18.9272C146.908 19.505 146.541 20.0047 146.04 20.3391C145.539 20.6734 144.937 20.821 144.338 20.7561C143.922 20.7671 143.508 20.6873 143.125 20.5223C142.743 20.3573 142.401 20.1111 142.123 19.8006C141.845 19.4901 141.638 19.1229 141.516 18.7245C141.395 18.326 141.361 17.9058 141.418 17.4931C141.363 17.0791 141.397 16.658 141.518 16.2584C141.64 15.8587 141.845 15.4898 142.122 15.1766C142.398 14.8634 142.739 14.6133 143.12 14.4431C143.502 14.273 143.915 14.1867 144.333 14.1903C146.092 14.1903 147.153 15.3921 147.153 17.3772V17.8126H142.689V17.8825C142.669 18.1145 142.699 18.348 142.775 18.568C142.851 18.7881 142.972 18.9899 143.13 19.1604C143.289 19.3309 143.481 19.4664 143.695 19.5582C143.909 19.65 144.14 19.6961 144.373 19.6935C144.671 19.7294 144.973 19.6756 145.241 19.5392C145.509 19.4027 145.73 19.1897 145.877 18.9271L147.078 18.9272ZM142.689 16.8898H145.882C145.898 16.6777 145.869 16.4645 145.797 16.2642C145.726 16.0638 145.613 15.8806 145.467 15.7264C145.32 15.5722 145.143 15.4503 144.946 15.3686C144.75 15.287 144.539 15.2473 144.326 15.2522C144.11 15.2494 143.896 15.29 143.696 15.3713C143.496 15.4527 143.315 15.5732 143.162 15.7258C143.01 15.8784 142.889 16.0601 142.808 16.26C142.727 16.4599 142.686 16.6741 142.689 16.8898H142.689Z" fill="black"/>
</g>
<defs>
<clipPath id="clip0_1865_5929">
<rect width="168" height="56.1572" fill="white"/>
</clipPath>
</defs>
</svg>
