<svg width="43" height="42" viewBox="0 0 43 42" fill="none" xmlns="http://www.w3.org/2000/svg">
<circle cx="21.8643" cy="21" r="17.5" fill="#1DA1F2"/>
<path fill-rule="evenodd" clip-rule="evenodd" d="M32.3643 14.2701C31.5922 14.613 30.7614 14.844 29.8899 14.9483C30.7796 14.415 31.4627 13.5708 31.784 12.565C30.9524 13.0591 30.0292 13.4168 29.0486 13.6107C28.2625 12.7736 27.1419 12.25 25.9037 12.25C23.5245 12.25 21.5955 14.1791 21.5955 16.5582C21.5955 16.8956 21.634 17.2246 21.7075 17.5402C18.1265 17.3611 14.9522 15.6455 12.8272 13.0388C12.4562 13.6751 12.2441 14.415 12.2441 15.2045C12.2441 16.6989 13.0035 18.0176 14.1606 18.7904C13.4536 18.768 12.7901 18.5741 12.2084 18.2514V18.3053C12.2084 20.3933 13.6944 22.134 15.6641 22.5309C15.3029 22.6289 14.9221 22.6821 14.5294 22.6821C14.2516 22.6821 13.9814 22.6548 13.7182 22.6044C14.2663 24.3158 15.858 25.5617 17.7429 25.5967C16.2688 26.7516 14.4112 27.4411 12.3925 27.4411C12.0439 27.4411 11.7009 27.4208 11.3643 27.3802C13.2709 28.6023 15.5353 29.3163 17.9683 29.3163C25.8925 29.3163 30.2259 22.7514 30.2259 17.0587C30.2259 16.8718 30.2224 16.6856 30.2133 16.5015C31.056 15.8926 31.7868 15.1338 32.3643 14.2701Z" fill="white"/>
</svg>
