<svg width="43" height="42" viewBox="0 0 43 42" fill="none" xmlns="http://www.w3.org/2000/svg">
<rect x="3.86426" y="4" width="35" height="35" rx="17.5" fill="url(#paint0_radial_1865_5862)"/>
<rect x="3.86426" y="4" width="35" height="35" rx="17.5" fill="url(#paint1_radial_1865_5862)"/>
<path d="M21.3651 12.75C18.9887 12.75 18.6905 12.7604 17.7571 12.8029C16.8256 12.8455 16.1898 12.993 15.6334 13.2094C15.0579 13.4329 14.5697 13.7319 14.0834 14.2184C13.5966 14.7048 13.2977 15.193 13.0735 15.7683C12.8565 16.3249 12.7089 16.9609 12.6669 17.8921C12.6252 18.8255 12.6143 19.1239 12.6143 21.5004C12.6143 23.8768 12.6248 24.1741 12.6671 25.1075C12.71 26.0391 12.8574 26.6749 13.0736 27.2313C13.2973 27.8068 13.5963 28.295 14.0828 28.7814C14.569 29.2681 15.0572 29.5678 15.6323 29.7913C16.189 30.0077 16.8251 30.1552 17.7564 30.1978C18.6897 30.2403 18.9878 30.2507 21.364 30.2507C23.7405 30.2507 24.0379 30.2403 24.9712 30.1978C25.9027 30.1552 26.5393 30.0077 27.096 29.7913C27.6713 29.5678 28.1588 29.2681 28.645 28.7814C29.1317 28.295 29.4307 27.8068 29.6549 27.2315C29.87 26.6749 30.0176 26.0389 30.0614 25.1077C30.1033 24.1743 30.1143 23.8768 30.1143 21.5004C30.1143 19.1239 30.1033 18.8257 30.0614 17.8923C30.0176 16.9607 29.87 16.3249 29.6549 15.7685C29.4307 15.193 29.1317 14.7048 28.645 14.2184C28.1582 13.7317 27.6715 13.4327 27.0955 13.2094C26.5377 12.993 25.9015 12.8455 24.9699 12.8029C24.0366 12.7604 23.7395 12.75 21.3623 12.75H21.3651ZM20.5801 14.3269C20.8131 14.3265 21.073 14.3269 21.3651 14.3269C23.7014 14.3269 23.9783 14.3353 24.9008 14.3772C25.754 14.4162 26.217 14.5588 26.5254 14.6785C26.9338 14.8371 27.2249 15.0267 27.531 15.333C27.8372 15.6393 28.0268 15.9309 28.1858 16.3393C28.3055 16.6474 28.4483 17.1104 28.4871 17.9636C28.529 18.886 28.5381 19.1631 28.5381 21.4983C28.5381 23.8336 28.529 24.1107 28.4871 25.0331C28.4481 25.8863 28.3055 26.3493 28.1858 26.6574C28.0272 27.0658 27.8372 27.3565 27.531 27.6626C27.2247 27.9689 26.934 28.1585 26.5254 28.3171C26.2174 28.4374 25.754 28.5796 24.9008 28.6186C23.9784 28.6605 23.7014 28.6696 21.3651 28.6696C19.0286 28.6696 18.7517 28.6605 17.8293 28.6186C16.9762 28.5792 16.5132 28.4367 16.2045 28.3169C15.7962 28.1583 15.5045 27.9687 15.1983 27.6624C14.892 27.3562 14.7024 27.0652 14.5435 26.6567C14.4237 26.3486 14.281 25.8856 14.2421 25.0324C14.2002 24.11 14.1918 23.8329 14.1918 21.4962C14.1918 19.1595 14.2002 18.8838 14.2421 17.9614C14.2812 17.1082 14.4237 16.6452 14.5435 16.3367C14.7021 15.9284 14.892 15.6367 15.1983 15.3304C15.5045 15.0242 15.7962 14.8346 16.2045 14.6756C16.513 14.5553 16.9762 14.4131 17.8293 14.3739C18.6365 14.3375 18.9493 14.3265 20.5801 14.3247V14.3269ZM26.0358 15.7798C25.4561 15.7798 24.9858 16.2496 24.9858 16.8295C24.9858 17.4092 25.4561 17.8795 26.0358 17.8795C26.6155 17.8795 27.0858 17.4092 27.0858 16.8295C27.0858 16.2498 26.6155 15.7794 26.0358 15.7794V15.7798ZM21.3651 17.0067C18.8835 17.0067 16.8715 19.0187 16.8715 21.5004C16.8715 23.982 18.8835 25.9931 21.3651 25.9931C23.8466 25.9931 25.8579 23.982 25.8579 21.5004C25.8579 19.0187 23.8465 17.0067 21.3649 17.0067H21.3651ZM21.3651 18.5836C22.9758 18.5836 24.2818 19.8894 24.2818 21.5004C24.2818 23.1111 22.9758 24.4171 21.3651 24.4171C19.7541 24.4171 18.4484 23.1111 18.4484 21.5004C18.4484 19.8894 19.7541 18.5836 21.3651 18.5836Z" fill="white"/>
<defs>
<radialGradient id="paint0_radial_1865_5862" cx="0" cy="0" r="1" gradientUnits="userSpaceOnUse" gradientTransform="translate(13.1612 41.6957) rotate(-90) scale(34.6876 32.2622)">
<stop stop-color="#FFDD55"/>
<stop offset="0.1" stop-color="#FFDD55"/>
<stop offset="0.5" stop-color="#FF543E"/>
<stop offset="1" stop-color="#C837AB"/>
</radialGradient>
<radialGradient id="paint1_radial_1865_5862" cx="0" cy="0" r="1" gradientUnits="userSpaceOnUse" gradientTransform="translate(-1.99843 6.52134) rotate(78.6806) scale(15.5055 63.9143)">
<stop stop-color="#3771C8"/>
<stop offset="0.128" stop-color="#3771C8"/>
<stop offset="1" stop-color="#6600FF" stop-opacity="0"/>
</radialGradient>
</defs>
</svg>
