<svg width="43" height="42" viewBox="0 0 43 42" fill="none" xmlns="http://www.w3.org/2000/svg">
<circle cx="21.8643" cy="21" r="17.5" fill="#FF0000"/>
<path fill-rule="evenodd" clip-rule="evenodd" d="M31.7522 14.3308C32.1014 14.68 32.353 15.1146 32.482 15.5913C33.2248 18.5813 33.0532 23.3034 32.4965 26.4086C32.3675 26.8854 32.1158 27.32 31.7666 27.6692C31.4174 28.0184 30.9828 28.27 30.5061 28.399C28.7609 28.875 21.7368 28.875 21.7368 28.875C21.7368 28.875 14.7128 28.875 12.9676 28.399C12.4909 28.27 12.0563 28.0184 11.7071 27.6692C11.3579 27.32 11.1062 26.8854 10.9772 26.4086C10.2301 23.4317 10.4349 18.7067 10.9628 15.6058C11.0918 15.1291 11.3434 14.6944 11.6927 14.3452C12.0419 13.996 12.4765 13.7444 12.9532 13.6154C14.6984 13.1394 21.7224 13.125 21.7224 13.125C21.7224 13.125 28.7465 13.125 30.4916 13.601C30.9684 13.73 31.403 13.9816 31.7522 14.3308ZM25.3138 21L19.4868 24.375V17.625L25.3138 21Z" fill="white"/>
</svg>
