<svg width="43" height="42" viewBox="0 0 43 42" fill="none" xmlns="http://www.w3.org/2000/svg">
<circle cx="21.8643" cy="21" r="17.5" fill="#0077B5"/>
<path fill-rule="evenodd" clip-rule="evenodd" d="M17.2922 12.4984C17.2922 13.5879 16.4626 14.4695 15.1654 14.4695C13.9187 14.4695 13.0892 13.5879 13.1148 12.4984C13.0892 11.356 13.9187 10.5 15.1902 10.5C16.4626 10.5 17.2673 11.356 17.2922 12.4984ZM13.2191 28.7167V16.0267H17.163V28.7159H13.2191V28.7167Z" fill="white"/>
<path fill-rule="evenodd" clip-rule="evenodd" d="M20.324 20.0766C20.324 18.4938 20.2719 17.1444 20.2197 16.0284H23.6453L23.8274 17.7669H23.9053C24.4243 16.9623 25.7216 15.7437 27.8235 15.7437C30.4179 15.7437 32.3642 17.4565 32.3642 21.1917V28.7184H28.4203V21.6859C28.4203 20.0501 27.8499 18.935 26.4227 18.935C25.3325 18.935 24.6843 19.6875 24.4251 20.4135C24.3208 20.6735 24.2695 21.0361 24.2695 21.4003V28.7184H20.3256V20.0766H20.324Z" fill="white"/>
</svg>
