<svg width="43" height="43" viewBox="0 0 43 43" fill="none" xmlns="http://www.w3.org/2000/svg">
<g clip-path="url(#clip0_1865_5442)">
<path fill-rule="evenodd" clip-rule="evenodd" d="M1.24725 1.2339C0.536828 1.93399 0.335938 2.18166 0.335938 2.35769C0.335938 2.49316 0.851602 3.50265 1.62501 4.88117L2.91417 7.17873L4.36349 7.65081L5.81281 8.12297L10.8831 13.1927L15.9534 18.2625L16.5642 18.2401C17.0309 18.2229 17.2441 18.2545 17.4688 18.3743L17.7627 18.5308L18.4983 17.8118L19.2339 17.0928L13.6474 11.5058L8.06074 5.91871L7.57875 4.45008L7.09668 2.98145L4.74722 1.65869C3.45503 0.931135 2.344 0.335938 2.27816 0.335938C2.21232 0.335938 1.74839 0.74007 1.24725 1.2339ZM23.9775 0.975058C21.9091 1.2774 20.0401 2.15789 18.6235 3.49753C18.3319 3.77342 18.2246 3.93819 18.2246 4.1107C18.2246 4.49123 18.4012 4.56556 19.3443 4.58219C19.9593 4.59302 20.3627 4.64929 20.7861 4.78325C22.6597 5.37626 24.3044 7.00371 24.9484 8.90234C25.2095 9.67198 25.2138 10.7744 24.9574 11.1892C24.6816 11.6354 24.7233 11.7997 25.2539 12.3559L25.7325 12.8577L21.7933 16.7975L17.854 20.7375L17.3327 20.2369C17.046 19.9616 16.7685 19.7363 16.716 19.7363C16.6635 19.7363 16.5186 19.7902 16.3937 19.856C16.269 19.9218 12.8011 23.3516 8.68718 27.4776C2.34442 33.8391 1.1678 35.0561 0.947092 35.4834C0.16335 37.0006 0.211221 38.6897 1.07584 40.0246C2.40708 42.0802 5.10583 42.6837 7.17386 41.3883C7.4086 41.2412 9.08493 39.6452 10.8991 37.8416C14.4061 34.3548 14.2702 34.5211 14.4037 33.5532C14.6468 31.7914 16.2647 29.7033 18.0986 28.7842C18.6556 28.5051 19.4932 28.2543 20.1143 28.1806L20.6182 28.1207L21.647 27.0953C22.9065 25.8397 22.9068 25.8382 22.133 25.0367L21.5903 24.4745L25.5307 20.5348L29.471 16.5951L30.0134 17.1159C30.3441 17.4335 30.6282 17.6367 30.7413 17.6367C30.8521 17.6367 31.1422 17.4352 31.4612 17.1368C32.3266 16.3273 33.0648 16.3467 33.4993 17.1903C33.6962 17.5727 33.5947 17.9795 33.1951 18.4081C32.8075 18.8239 32.8833 18.9811 34.0242 20.1257C34.6472 20.7507 35.2133 21.2411 35.4375 21.3499C35.8985 21.5738 36.6758 21.586 37.1631 21.3771C37.6343 21.1751 42.1489 16.6761 42.415 16.1433C42.544 15.885 42.6082 15.6047 42.6105 15.2909C42.6162 14.4742 42.4867 14.25 41.3301 13.0738C40.7474 12.4813 40.2043 11.9603 40.1235 11.9161C39.9599 11.8268 39.7418 11.9157 39.3736 12.2217C38.672 12.805 37.6263 12.3179 37.6253 11.4073C37.6251 11.1838 37.706 10.9928 37.9189 10.7137C38.0806 10.5019 38.2129 10.2433 38.2129 10.139C38.2129 10.0011 37.2571 8.99599 34.7065 6.4516C31.6753 3.42757 31.0921 2.88419 30.4023 2.44092C29.5239 1.87638 28.2676 1.34862 27.2949 1.13538C26.6862 1.00185 24.5125 0.896869 23.9775 0.975058ZM25.5015 22.8315L23.8356 24.4989L24.0301 24.8681C24.1795 25.1519 24.2245 25.3733 24.2248 25.8252C24.2251 26.5199 24.0949 26.8157 23.5275 27.4082C23.1635 27.7885 23.1483 27.8218 23.2977 27.9121C23.3857 27.9653 23.7543 28.229 24.1169 28.4982C25.7374 29.7014 26.87 31.5557 27.1264 33.4258L27.2129 34.0557L31.0961 37.9239C35.2783 42.0899 35.3412 42.1423 36.5332 42.4591C37.2971 42.662 38.5105 42.6452 39.2207 42.4219C40.7621 41.9372 41.984 40.7093 42.4672 39.1597C42.662 38.5347 42.681 38.3616 42.6465 37.5181C42.6026 36.445 42.3836 35.763 41.818 34.9375C41.6439 34.6834 39.845 32.8254 37.8205 30.8085L34.1396 27.1415L33.6777 27.0864C30.8596 26.7502 28.213 24.5168 27.3789 21.7708C27.2775 21.4371 27.1884 21.1641 27.181 21.1641C27.1735 21.1641 26.4177 21.9144 25.5015 22.8315Z" fill="white"/>
</g>
<defs>
<clipPath id="clip0_1865_5442">
<rect width="43" height="43" fill="white"/>
</clipPath>
</defs>
</svg>
