<svg width="61" height="61" viewBox="0 0 61 61" fill="none" xmlns="http://www.w3.org/2000/svg">
<path fill-rule="evenodd" clip-rule="evenodd" d="M0.871275 11.2114C0.662422 11.2719 0.381012 11.4619 0.245787 11.6337C0.000357424 11.9457 0 11.9669 0 27.6548V43.3634L0.347533 43.7525L0.695066 44.1416H2.72141C5.28067 44.1416 5.29509 44.134 5.69206 42.5812C6.288 40.2502 7.3922 38.8397 9.35254 37.9059C10.3824 37.4151 11.2163 37.246 12.5693 37.2529C14.5584 37.2632 15.9947 37.8205 17.35 39.1078C18.3691 40.0759 18.9556 41.1108 19.2837 42.52C19.5382 43.6131 19.7412 43.9083 20.3627 44.0895C20.6466 44.1723 23.4082 44.202 28.5938 44.1779C37.0278 44.1386 36.7225 44.1629 37.0754 43.5037C37.2018 43.2673 37.2314 40.2409 37.2314 27.5726V11.9332L36.9424 11.6256C36.7835 11.4564 36.4618 11.2647 36.2276 11.1997C35.6726 11.0455 1.40538 11.0568 0.871275 11.2114ZM40.1863 18.1022C39.9227 18.2644 39.7658 18.4829 39.6776 18.81C39.5902 19.135 39.5603 23.0444 39.5822 31.2954C39.6169 44.3111 39.5808 43.6262 40.2521 43.9855C40.6378 44.1919 42.4032 44.1919 42.7889 43.9855C43.1988 43.7661 43.3362 43.5006 43.5364 42.5407C43.8115 41.221 44.3449 40.2401 45.3173 39.2653C46.7204 37.8585 48.1964 37.2595 50.2773 37.2524C52.3621 37.2453 53.9363 37.8525 55.2661 39.177C56.2121 40.119 56.7461 41.0771 57.0847 42.4394C57.2195 42.9825 57.4049 43.5453 57.4967 43.6902C57.7255 44.0518 58.5122 44.2394 59.5047 44.1691C60.2467 44.1166 60.3671 44.0718 60.6663 43.737L61 43.3634V36.9301V30.4969L56.1588 24.6903C53.4962 21.4968 51.1097 18.6693 50.8554 18.4072L50.3931 17.9307L45.4803 17.8992C40.7721 17.8689 40.5515 17.8774 40.1863 18.1022ZM42.8311 20.5114C42.1829 20.8678 42.181 20.879 42.181 24.6025C42.181 28.3433 42.1833 28.3564 42.853 28.6989C43.233 28.8933 53.8438 28.8847 54.2719 28.6896C54.8198 28.44 55.076 27.671 54.7896 27.1357C54.4905 26.577 49.4375 20.6469 49.1481 20.515C48.7332 20.326 43.1741 20.3226 42.8311 20.5114ZM10.9496 39.6617C7.11174 40.8895 6.04758 45.9115 9.06803 48.5413C9.9648 49.3219 10.9709 49.7221 12.1828 49.7802C13.8553 49.8601 15.0556 49.415 16.1683 48.3023C18.9669 45.5037 17.7278 40.7502 13.9035 39.6146C13.1028 39.3768 11.7736 39.398 10.9496 39.6617ZM48.7793 39.6586C47.3291 40.1535 46.3023 41.0564 45.6459 42.4141C45.2632 43.2055 45.2092 43.4329 45.1728 44.4044C45.1425 45.213 45.1859 45.6669 45.338 46.132C46.0768 48.3907 47.99 49.8059 50.3139 49.8127C54.2712 49.8244 56.7251 45.7128 54.8996 42.1291C54.5809 41.5035 53.6768 40.5551 53.0472 40.1861C51.7985 39.4544 50.0213 39.2347 48.7793 39.6586ZM11.8386 43.3574C11.3145 43.6771 11.0801 44.06 11.0801 44.5965C11.0801 45.4119 11.7382 46.1074 12.5098 46.1074C12.9343 46.1074 13.5177 45.7719 13.7362 45.4021C14.1792 44.6521 13.8956 43.7161 13.1008 43.3052C12.644 43.069 12.2874 43.0837 11.8386 43.3574ZM49.7121 43.3249C49.2482 43.5535 48.8475 44.1599 48.8481 44.6322C48.8491 45.3618 49.6065 46.1074 50.3467 46.1074C51.0223 46.1074 51.8262 45.2875 51.8262 44.5983C51.8262 44.2024 51.401 43.5697 50.9848 43.3466C50.49 43.0812 50.2159 43.0766 49.7121 43.3249Z" fill="white"/>
</svg>
