<svg width="42" height="60" viewBox="0 0 42 60" fill="none" xmlns="http://www.w3.org/2000/svg">
<path fill-rule="evenodd" clip-rule="evenodd" d="M26.814 2.88584L21.0848 5.75881L22.9158 6.98096C23.9229 7.65314 24.7939 8.2031 24.8516 8.2031C24.9541 8.2031 27.3307 7.0965 28.4927 6.50764L29.0781 6.21103L29.5368 7.04154C29.9465 7.78334 29.9815 7.90908 29.8649 8.21787C29.5295 9.1065 30.7929 9.87795 31.4719 9.19896C31.6127 9.0581 32.0065 9.02342 33.4651 9.02342H35.2828L35.3193 9.46287C35.3484 9.81584 35.4075 9.90971 35.6193 9.93982C35.852 9.97287 35.8829 10.0451 35.8829 10.5551C35.8829 11.1188 35.8914 11.1328 36.2345 11.1328H36.5861V8.61326V6.09373H36.2345C35.8908 6.09373 35.8829 6.10674 35.8829 6.67967C35.8829 7.22658 35.8634 7.2656 35.59 7.2656C35.3263 7.2656 35.297 7.31248 35.297 7.73435V8.2031H33.5603C31.8486 8.2031 31.8199 8.19889 31.566 7.90674C31.4243 7.74385 31.1607 7.58096 30.9803 7.54486C30.728 7.49435 30.5592 7.31283 30.25 6.75935C30.0287 6.36338 29.8309 6.00103 29.8103 5.95416C29.7897 5.90728 30.6689 5.42025 31.764 4.87193L33.7553 3.87502L33.8948 3.20271L34.0344 2.53041L33.4102 1.26514C33.0669 0.569276 32.7313 0.00290935 32.6645 0.00642497C32.5977 0.0099406 29.965 1.30568 26.814 2.88584ZM21.9962 1.16517C21.6777 1.29502 21.1173 1.86994 21.1173 2.0667C21.1173 2.32275 21.3488 2.25338 21.7914 1.86478C22.1545 1.54592 22.2677 1.50935 22.7443 1.5567C23.0419 1.58623 23.4039 1.64975 23.549 1.69779C23.7519 1.76506 23.8126 1.7401 23.8126 1.58975C23.8126 1.19986 22.6037 0.917323 21.9962 1.16517ZM31.9177 1.27475C31.8314 1.32947 31.7787 1.49998 31.8005 1.65385C31.8548 2.03881 32.4281 2.1199 32.5427 1.75896C32.6757 1.3399 32.2883 1.03978 31.9177 1.27475ZM22.0255 2.10643C21.6946 2.36752 21.5858 2.81248 21.853 2.81248C21.9354 2.81248 22.0985 2.70057 22.2157 2.56369C22.3939 2.35557 22.5121 2.32639 22.9398 2.38498C23.2208 2.42353 23.4761 2.41428 23.5069 2.36447C23.6305 2.16443 23.3452 1.96357 22.8604 1.90943C22.4547 1.86408 22.2806 1.9051 22.0255 2.10643ZM12.9606 2.97174C11.2873 3.51959 10.2447 5.07279 10.363 6.84127C10.4619 8.3183 11.2228 9.44084 12.5453 10.0606C13.5053 10.5106 14.8099 10.5048 15.7433 10.0465C16.5181 9.66596 17.2868 8.87822 17.6365 8.10654C18.0115 7.27908 17.9883 5.89697 17.5852 5.03904C17.2184 4.25846 16.5723 3.59541 15.7853 3.19182C15.0779 2.829 13.7196 2.72318 12.9606 2.97174ZM22.8165 3.5667C22.6232 3.65107 22.3548 3.84549 22.2203 3.99877C21.8395 4.43225 21.4359 5.15623 21.575 5.15623C21.7682 5.15623 24.1642 3.9424 24.1642 3.84455C24.1642 3.56635 23.2495 3.37768 22.8165 3.5667ZM20.5714 6.47494C20.3986 6.74869 19.8772 7.55799 19.4128 8.27342C18.5109 9.66279 18.4231 9.72654 17.4102 9.72654C17.1573 9.72654 16.8413 9.85146 16.5375 10.0715C15.4017 10.8942 13.6395 11.0204 12.2371 10.3794C11.542 10.0617 11.4409 10.0472 10.4059 10.1151C9.20461 10.194 8.78766 10.3302 8.52668 10.7284C8.32348 11.0386 5.64739 22.3613 5.65114 22.8955C5.65254 23.0969 6.14485 25.0884 6.74532 27.3211L7.83704 31.3804L6.86473 36.4031C6.33001 39.1656 5.89044 41.5988 5.88774 41.8104C5.87063 43.1751 7.36044 44.1931 8.65852 43.7038C9.1186 43.5302 9.72399 42.9178 9.85922 42.4889C10.055 41.8679 11.9768 31.6666 11.974 31.2629C11.9726 31.0517 11.8144 30.2988 11.6225 29.5898C11.2209 28.1058 11.2235 28.125 11.4287 28.125C11.5141 28.125 12.464 27.5713 13.5394 26.8945C14.6149 26.2178 15.5439 25.664 15.6039 25.664C15.9932 25.664 15.7216 25.9826 14.8563 26.5407C14.205 26.961 13.8356 27.2778 13.7964 27.4502C13.573 28.4318 13.0314 32.0837 13.0314 32.6081C13.0314 33.3444 13.3209 33.8734 13.9597 34.3038C14.4298 34.6206 15.4316 34.6683 15.953 34.3987C16.417 34.1587 16.8722 33.5836 17.0039 33.0709C17.0652 32.832 17.5002 30.3078 17.9705 27.4615L18.8255 22.2861L18.5944 21.7315C18.1381 20.6358 16.9648 20.115 15.9284 20.548C15.6886 20.6482 15.4923 20.714 15.4923 20.6942C15.4923 20.573 16.5456 16.2514 16.5847 16.2123C16.6111 16.1859 17.1539 16.8767 17.7911 17.7474C18.5361 18.7658 19.0747 19.3885 19.3009 19.4929C19.4943 19.5822 20.9181 19.9331 22.465 20.2726C24.0118 20.6121 25.3178 20.926 25.3671 20.9702C25.4165 21.0144 25.376 21.2126 25.2772 21.4106C25.0631 21.8396 25.1877 22.2951 25.5757 22.5028C25.9774 22.7178 26.3579 22.5379 26.8252 21.9121C27.1608 21.4625 27.3342 21.3281 27.5787 21.3281C28.2806 21.3281 28.9529 20.3533 28.7506 19.6289C28.6036 19.1025 28.9406 18.6812 29.5862 18.5844C30.6661 18.4224 31.3115 17.715 31.3122 16.6923C31.3124 16.3663 31.2449 16.0069 31.1622 15.8937C31.0252 15.7064 30.9772 15.7358 30.6278 16.2225C30.1584 16.876 29.9019 17.0292 29.5199 16.884C28.9804 16.6788 28.9525 16.1986 29.4376 15.4687C29.8688 14.8202 29.8711 14.7649 29.4669 14.7682C28.9658 14.7722 28.2113 15.1686 27.9163 15.583C27.5926 16.0376 27.48 16.8614 27.6768 17.3362C27.8039 17.6434 27.7895 17.7296 27.5539 18.0706C27.4071 18.2831 27.2797 18.4692 27.2708 18.484C27.262 18.4988 25.7816 18.178 23.981 17.7709L20.7072 17.031L19.0958 14.8318C18.2097 13.6222 17.4845 12.5913 17.4845 12.5409C17.4845 12.4904 17.9986 12.4271 18.6271 12.4003C19.3468 12.3695 19.8689 12.2886 20.0379 12.1816C20.2992 12.016 22.987 7.97236 23.0707 7.61881C23.0982 7.50256 22.7291 7.1892 21.9991 6.70932L20.8855 5.97713L20.5714 6.47494ZM18.4202 27.1582C18.4102 27.6766 17.345 33.4522 17.213 33.7053C17.1161 33.891 16.8737 34.1979 16.6746 34.3871C16.4755 34.5764 16.3126 34.8467 16.3126 34.9877C16.3126 35.1287 16.2797 35.4089 16.2394 35.6103L16.1661 35.9765H13.837C11.6975 35.9765 11.5078 35.9932 11.5063 36.1816C11.5055 36.2944 11.4729 36.5053 11.4341 36.6504L11.3634 36.914H13.7288C15.9252 36.914 16.09 36.9287 16.0366 37.1191C16.005 37.2319 15.7553 38.9195 15.4816 40.8691L14.9841 44.414H10.1511H5.31821L5.48614 43.7988C5.60321 43.3701 5.6277 42.9704 5.56688 42.4804C5.45297 41.5618 5.40141 41.9129 6.47333 36.3097C7.34637 31.7465 7.39829 31.389 7.2695 30.8312C7.19379 30.5029 7.10122 30.2347 7.06395 30.2352C7.00208 30.236 0.23649 59.4754 0.25149 59.6777C0.255005 59.7261 0.599654 59.7656 1.01743 59.7656C1.74797 59.7656 1.78008 59.7533 1.85895 59.4433C1.90407 59.2662 2.20934 57.9609 2.53735 56.5429L3.13383 53.9648L8.37551 53.9344C11.5013 53.9161 13.6173 53.9472 13.6173 54.0113C13.6173 54.0705 13.433 55.429 13.2076 57.0302C12.9823 58.6313 12.7977 59.957 12.7975 59.9761C12.7972 59.9951 13.1529 59.9951 13.588 59.9761C14.3325 59.9434 14.3813 59.9242 14.417 59.6484C14.438 59.4873 15.4406 52.3945 16.6452 43.8867L18.8353 28.4179L20.2106 28.3849L21.5861 28.352V27.7111V27.0703H20.004C19.1339 27.0703 18.4212 27.1099 18.4202 27.1582ZM12.6234 27.9556L12.0396 28.3594H12.6527C13.1789 28.3594 13.2657 28.3275 13.2657 28.1346C13.2657 28.011 13.2977 27.8264 13.3369 27.7244C13.4418 27.451 13.2749 27.5052 12.6234 27.9556ZM19.9908 29.0332C20.0244 29.146 20.3705 30.6256 20.7599 32.3212C21.1493 34.0169 21.5002 35.533 21.5397 35.6904L21.6115 35.9765H19.9132C18.2511 35.9765 18.2134 35.9822 18.1443 36.2402C17.9583 36.9344 17.9039 36.914 19.9454 36.914C20.9767 36.914 21.8215 36.9273 21.8228 36.9433C21.8241 36.9594 22.2091 38.6338 22.6785 40.664L23.5318 44.3554L20.3088 44.3866C16.8591 44.42 16.9038 44.4116 16.9003 45.0293L16.8986 45.3515H20.332H23.7654L24.6094 49.0136C25.0737 51.0279 25.4534 52.7417 25.4534 52.8222C25.4532 52.9371 24.4024 52.9687 20.59 52.9687H15.7267V53.4375V53.9062L20.7365 53.9066L25.7462 53.9069L26.3244 56.4554C27.1747 60.2025 26.9719 59.7656 27.8611 59.7656C28.4359 59.7656 28.6173 59.7258 28.6173 59.5993C28.6173 59.5079 27.0853 52.7975 25.2128 44.6872C23.3404 36.577 21.754 29.691 21.6875 29.3847L21.5666 28.8281H20.7482C20.0235 28.8281 19.9366 28.8517 19.9908 29.0332ZM12.0518 33.3691C12.0122 33.6109 11.906 34.1908 11.816 34.6582L11.6523 35.5078H12.1422H12.6319L12.458 34.2187C12.3623 33.5097 12.248 32.9297 12.2039 32.9297C12.1598 32.9297 12.0914 33.1275 12.0518 33.3691ZM11.3285 37.5293C11.3612 37.6744 11.5741 39.1377 11.8018 40.7812C12.0295 42.4248 12.2394 43.8355 12.2684 43.916C12.3032 44.0131 12.582 44.0625 13.0956 44.0625H13.8703L13.8047 43.7402C13.7357 43.4018 12.9142 37.5117 12.9142 37.3558C12.9142 37.3061 12.544 37.2656 12.0916 37.2656C11.2991 37.2656 11.2712 37.2752 11.3285 37.5293ZM4.26551 49.0722C3.7977 51.1186 3.41661 52.833 3.41848 52.882C3.42047 52.9311 5.75403 52.9575 8.60438 52.9406L13.7868 52.9101L14.3252 49.1308L14.8637 45.3515H9.98977H5.11583L4.26551 49.0722ZM12.5626 46.0386C12.5626 46.3448 13.3747 51.9449 13.4266 51.9968C13.5676 52.1378 14.2542 46.7595 14.1591 46.2597L14.0754 45.8203H13.3191C12.6593 45.8203 12.5626 45.8482 12.5626 46.0386ZM33.5392 53.0273C33.5392 53.2421 33.6016 53.3203 33.7736 53.3203C33.9766 53.3203 34.0079 53.3985 34.0079 53.9062V54.4922H32.6017H31.1954V55.5469V56.6015H36.4689H41.7423V55.5469V54.4922H40.3947H39.047V53.9062C39.047 53.3985 39.0783 53.3203 39.2814 53.3203C39.4533 53.3203 39.5157 53.2421 39.5157 53.0273V52.7344H36.5275H33.5392V53.0273ZM34.5939 54.0234V54.4922H36.5275H38.4611V54.0234V53.5547H36.5275H34.5939V54.0234ZM15.3751 55.8094C15.3751 55.8464 15.2433 56.7829 15.0822 57.8906C14.921 58.9983 14.7892 59.926 14.7892 59.9523C14.7892 59.9785 15.0792 60 15.4337 60C15.8728 60 16.0773 59.9533 16.0752 59.8535C16.0676 59.4826 15.5023 55.8692 15.4425 55.8096C15.4055 55.7724 15.3751 55.7724 15.3751 55.8094ZM31.1954 58.3594V59.8828H36.4689H41.7423V58.3594V56.8359H36.4689H31.1954V58.3594Z" fill="white"/>
</svg>
