<svg width="63" height="63" viewBox="0 0 63 63" fill="none" xmlns="http://www.w3.org/2000/svg">
<g clip-path="url(#clip0_1865_5438)">
<path fill-rule="evenodd" clip-rule="evenodd" d="M13.5194 12.7989C9.8152 13.4249 8.32091 17.9127 10.899 20.669C13.1664 23.093 17.1816 22.4202 18.5925 19.3798C18.9714 18.5634 18.9486 18.5349 17.6756 18.228C16.3693 17.9131 14.4859 17.0435 14.0275 16.5437C13.8583 16.3593 13.7752 16.2323 13.8429 16.2616C13.9106 16.2907 14.3258 16.4888 14.7657 16.7017C15.9022 17.2515 17.2474 17.5057 19.0724 17.5153C20.8171 17.5247 21.7901 17.3083 22.2616 16.8066C22.6485 16.3947 22.5285 15.9652 21.9129 15.5577C21.2894 15.1451 19.9764 14.7063 18.8356 14.5293C18.0756 14.4113 17.8458 14.3176 17.4565 13.9658C16.8244 13.3947 15.9502 12.9693 15.0766 12.8078C14.283 12.6611 14.3334 12.6615 13.5194 12.7989ZM35.3966 18.0469C35.3515 18.0919 35.3146 18.3964 35.3146 18.7236V19.3183H37.0372H38.7599V18.6416V17.9648H37.1193C36.2169 17.9648 35.4417 18.0017 35.3966 18.0469ZM40.7286 18.6416V19.3183H42.4513H44.1739V18.6416V17.9648H42.4513H40.7286V18.6416ZM32.8536 21.1025V21.7792H33.4689H34.0841V26.0859V30.3925H33.4689H32.8536V31.0693V31.746H47.9269H63.0001V31.0693V30.3925H62.4464H61.8927V26.0859V21.7792H62.4464H63.0001V21.1025V20.4257H47.9269H32.8536V21.1025ZM35.1915 26.0859V30.3925H48.0499H60.9083V26.0859V21.7792H48.0499H35.1915V26.0859ZM22.0591 22.387C20.7125 22.4487 20.5257 22.485 20.2778 22.7335C20.0806 22.931 20.0008 23.1564 20.0008 23.5156C20.0008 24.4526 20.8778 24.8413 22.1773 24.4804C22.7221 24.329 23.4317 24.4833 23.9053 24.8558C24.0858 24.9978 24.4042 25.1015 24.6597 25.1015C25.0196 25.1015 25.1017 25.0559 25.1017 24.8554C25.1017 24.6914 25.1838 24.6093 25.3478 24.6093C25.4831 24.6093 25.5939 24.554 25.5939 24.4863C25.5939 24.4186 25.6769 24.3632 25.7784 24.3632C25.8799 24.3632 25.963 24.3079 25.963 24.2402C25.963 24.1708 26.3116 24.1171 26.7628 24.1171C27.3917 24.1171 27.5626 24.0776 27.5626 23.9326C27.5626 23.7753 27.8908 23.748 29.7775 23.748C31.9102 23.748 31.9923 23.7389 31.9923 23.5019C31.9923 23.265 31.9102 23.2558 29.7919 23.2558C27.7415 23.2558 27.5872 23.2401 27.5309 23.0245C27.4803 22.8313 27.3237 22.7848 26.5823 22.7429C25.9078 22.7048 25.6661 22.6422 25.5765 22.4821C25.4483 22.253 25.1545 22.2451 22.0591 22.387ZM9.6593 22.6162C7.78542 23.2671 6.76769 24.6298 5.91879 27.624C5.04319 30.7126 4.81457 32.8054 5.03556 35.709C5.28806 39.0264 5.81679 40.1179 7.5675 40.9368C8.2701 41.2654 8.38908 41.2818 10.0284 41.2736L11.7511 41.2648L15.0693 40.3876C16.8942 39.905 18.3989 39.5219 18.4131 39.536C18.4272 39.5502 18.6668 41.4992 18.9453 43.8673C19.2239 46.2353 19.5113 48.3592 19.5839 48.587C19.7873 49.2241 20.5541 49.9124 21.3109 50.1371C22.2764 50.4239 23.0981 50.2272 23.8185 49.5369L24.3634 49.0148V46.7725C24.3634 44.945 24.272 43.7404 23.8689 40.2606C23.5969 37.9124 23.3145 35.7617 23.2413 35.4813C22.955 34.3839 21.8631 33.5493 20.7347 33.5653C20.3858 33.5702 18.5166 33.9945 16.4269 34.543L12.7355 35.512L12.6981 34.9855C12.6657 34.5285 12.9076 32.2713 13.1053 31.1873C13.1686 30.8403 13.0798 30.7521 11.2087 29.3043C9.0966 27.67 8.81483 27.3239 8.8291 26.3813C8.84657 25.2219 9.73362 24.3627 10.9124 24.3637C11.5739 24.3642 11.8877 24.5234 13.0918 25.4698C13.523 25.8087 13.9171 26.0859 13.9675 26.0859C14.1642 26.0859 13.8777 24.7544 13.5241 24.0255C12.97 22.8832 12.1757 22.3903 10.9022 22.3985C10.5569 22.4008 9.99767 22.4987 9.6593 22.6162ZM21.4718 23.1328C20.929 23.2072 20.9834 23.2194 21.9332 23.2365C22.5818 23.2482 23.0099 23.2068 23.0099 23.1328C23.0099 22.9994 22.4441 22.9994 21.4718 23.1328ZM20.9181 23.748C20.9181 23.8203 21.3487 23.871 21.964 23.871C22.5792 23.871 23.0099 23.8203 23.0099 23.748C23.0099 23.6756 22.5792 23.6249 21.964 23.6249C21.3487 23.6249 20.9181 23.6756 20.9181 23.748ZM10.0037 24.9735C9.49368 25.2845 9.22863 25.8106 9.22863 26.5122C9.22863 27.265 9.4084 27.4449 12.7963 30.0831C15.6741 32.324 16.015 32.5115 16.7793 32.274C17.238 32.1314 23.267 28.2104 23.8344 27.6857C24.0726 27.4655 24.2613 27.1457 24.3117 26.8765C24.4124 26.3401 24.2081 25.591 23.8804 25.2944C23.5038 24.9536 22.7852 24.7534 22.317 24.859C22.0889 24.9105 20.698 25.7426 19.2261 26.7081C17.7542 27.6736 16.4926 28.4639 16.4227 28.4641C16.3527 28.4645 15.3006 27.6891 14.0848 26.741C12.8689 25.7928 11.7532 24.953 11.6054 24.8747C11.1973 24.6585 10.444 24.7051 10.0037 24.9735ZM24.118 27.9923C24.0342 28.0933 23.5015 28.467 22.9342 28.8228C22.367 29.1785 21.9028 29.5113 21.9027 29.562C21.9025 29.6728 24.1109 29.6832 24.7633 29.5752L25.2247 29.499V28.6538V27.8085H24.7475C24.4746 27.8085 24.2053 27.8872 24.118 27.9923ZM33.715 35.9296V39.498H47.9269H62.1388V35.9296V32.3613H47.9269H33.715V35.9296ZM47.2715 34.2456C46.7123 34.841 47.1283 35.8066 47.9441 35.8066C48.4197 35.8066 48.8497 35.3602 48.8497 34.8665C48.8497 34.0702 47.8179 33.6642 47.2715 34.2456ZM32.8536 40.79V41.4667H47.9269H63.0001V40.79V40.1132H47.9269H32.8536V40.79ZM7.50598 41.4859C7.50598 41.5444 7.80572 42.3391 8.17215 43.252L8.83833 44.9121L5.55741 44.9128C3.64772 44.9132 2.08219 44.9674 1.81174 45.0425C1.55604 45.1135 1.15134 45.3432 0.912386 45.5531C-0.580911 46.8643 -0.198974 49.2495 1.62655 50.012C2.01735 50.1753 2.89849 50.2031 7.67258 50.2031H13.2611L13.9192 49.8593C14.8187 49.3894 15.3097 48.6073 15.3154 47.6353C15.3188 47.0474 15.1515 46.5162 14.212 44.1334L13.1046 41.3245L12.6739 41.4063C12.4371 41.4514 11.9941 41.5354 11.6896 41.5932C10.8279 41.7565 8.85814 41.7304 8.14803 41.5462C7.79489 41.4547 7.50598 41.4275 7.50598 41.4859ZM59.1857 42.2272C59.1857 42.5301 59.6854 48.8119 59.7491 49.311L59.816 49.8339H60.3566C60.8715 49.8339 60.9002 49.815 60.9602 49.434C61.0228 49.0375 61.5236 42.6852 61.5236 42.2886C61.5236 42.1097 61.367 42.082 60.3546 42.082C59.5382 42.082 59.1857 42.1258 59.1857 42.2272ZM25.1017 46.3271V49.957H39.2521H53.4025V46.3271V42.6972H39.2521H25.1017V46.3271ZM38.7794 44.4938C38.4049 44.7562 38.2442 45.2033 38.3883 45.5824C38.5466 45.9988 39.0565 46.3105 39.4272 46.2175C40.3336 45.99 40.4899 44.8101 39.6634 44.4334C39.262 44.2506 39.1122 44.2608 38.7794 44.4938Z" fill="white"/>
</g>
<defs>
<clipPath id="clip0_1865_5438">
<rect width="63" height="63" fill="white"/>
</clipPath>
</defs>
</svg>
