<?xml version="1.0" encoding="UTF-8"?>
<svg version="1.1" viewBox="0 0 1280 1279" width="1280" height="1279" xmlns="http://www.w3.org/2000/svg">
<path transform="translate(329,451)" d="m0 0 4 2 5 1 4 10 3 5v2l5 1-1-2v-13l5-5 6 1 3 3 1 11-1 5 5-3 5-10 2 1-6 13v4h-9v3l7 1h3l1-3 6 2-1 4 9-1 2 1-2-5-5-5-1-4 3 1 3 3 1-4 3-9 5-4 6 1 3 5-1 10-3 6h5v2l-10 2v3l5 1 4 3 4-2 2 2v4h7l4 2-2-5-3-4v-13l1-5 2 1v14l2 4 2 1v-8l6-7 2-1h6l3 3v8l-5 8-2 3 5-1 1 3-2 1h-10l-1 2 4 1 3 5 2 1v-6h2l2 5 2 2h-2v3l8 4h2l-2-6v-8l4-11-4 2-3-1 3-3h3l1-9h1l1 7 3 2-2 1-4 12 1 7 4-5 5-5 2-1h6l4 4-1 7-6 7-4 2 6 2 5-2h5l-4 3-12 3-8-3v2h2l2 8h2l1-2h2l2 5v4l6 5h2l-1-9 3-7 4-6h2l-2 5-3 4v8l4-5 8-4 6 1 3 3v6l-4 5-6 3h-6l4 4h18l1-5 3-2-2 9-1 2h-3l-2 4-6 5-1 6 8-4h8l4 4v6l-5 5-3 1h-10l5 5 11 2v1h-11l-7-3-3-5-3-1 1 8-1 4 5-2 1 8-5-1 2 5v6h4l1-6 6-5 7-3 3 1-5 3-5 2-2 5 4-1h9l5 3 2 5-3 5-4 2h-9l-5-1 3 4v2l9 3 1 2-6-1-8-5-3-5v-3h-3l-2 8-1 3 5-1-1 7-5-1 1 9-1 2 4-1 5-5 8-3 5 1v1l-9 2-4 4 10 1 6 4 1 2v6l-3 3-7 1-8-3-3-2 1 5 5 5 2 4-5-2-7-8-1-7h-2l-4 7v2l2 2-1 5-5-2-1 9-1 2 5-2 2-2 4-1 18 1v1l-10 1h-8l-2 2 10 5 4 5v6l-3 3h-7l-6-3-4-4-1-3-1 6 2 5 5 7 3 13-3-1-2-9-8-14v-9l-2-1-5 5v4l-2 5h-2l-2-2-4 9 6-1 2-1 16 5v2l-6-1-6-2h-5l5 5 5 6 1 6-2 4-7 1-8-6-4-6-1 2v6l4 12 1 2-2 1-1 7h-1l-1-8-11-7h-6l5 6 2 4v8l-3 3h-6l-6-5-3-6v-4l-3 3-1 5 1 9h-2l-1-3v-12l4-6-1-3-9 2v4l-5 1-2-2-6 4h-3l2 3 9 2 2 3h-7l3 6 1 8-3 5-1 1h-7l-4-5-2-7v-4h-4l-1 3-1-3 4-5 3-2v-2h-11l-1 4-5-3-4 1-6 1v3l6 2 3 3v2l-6-2 1 5v8l-3 5-3 2-6-1-3-4v-12l1-3-5 2-5 10-3 5h-3l-2-11-3-8-2-1-2 11-3 5-2 1h-7l-3-4v-9l4-7-6 1-7 8-2-1 6-8 5-4 8-1 1-3-5-1-3-3-3-1-1 4-4-2v-4l-10-2 2 4 5 2-2 1v23l-3-3v-14l-2-5-1-1-3 9-4 5-2 1h-6l-4-5 1-7 4-6 3-4-8 2-7 5h-4l-1 2-2-2 4-12v-7l-1-1-6 8-5 3-7-1-2-2v-8l5-6 5-3 1-2h-7l-7 3h-3v-2l15-5 4 2 6 1-4-5-1-5h-2l-1 3h-2v-4l-3-1 4-2-8-8-1 1v8l-6 11-2 4-2 5-2-3 2-6 5-7 1-6-7 5-9 2-5-3v-9l6-5 8-2-3-3h-18l-1-3 12-11 1-4-8 3h-8l-5-5 1-6 5-4 9-2 3 1-5-5-15-3 1-4 14-8 1-3h-14l-5-5-1-3 3-5 4-2h10l4 1-4-6-9-4-4-2 1-4 3 2 4 3 10 5v2h2l2 7h3v-6l2-4-6 1 2-3v-5l-1-4-11 3h-6v-2l11-2 3-5h-9l-6-4-2-3 1-6 4-3h8l8 4-3-7-6-5-1-3 5 2 6 5 3 6 2 6 3-5 3-3-3-1v-9l-3-3v-2h2l-1-3-8-4-4-4v-8l6-3 9 3 4 3v2h3l-3-9-4-5-1-4 3-2 9 2 5 1 3-2-8-6-2-3v-8l3-3h6l6 4 4 5 2 2v-8l-3-10-2-3 3-1 1-2v3l6 2 5 4 7 1-6-9-1-2v-6l3-4h7l5 5 3 5v5l3-2 1-17 2-5 3 4 6 7v2l7 1-3-7v-10l4-4 6 1 4 4 2 5 1 7 3-1 3-14-1-4zm6 9-3 14v3l-5 3-1 3 10 1v-4l6-2v-2l3-1-7-15zm-38 9v16l-4 7v3l10-1 1-3h-2v-2l5-2 2-6-9-9zm48 7-3 4v2l11-1-1-4-1-1zm-34 7-2 3v5l4-2v-2l5-1v-3zm50 0v3l9 13 5-2 3-2v-2l4-2 4-3v-2h-9l-3-2h-9zm-12 0-1 1h-9l-3 2-8 1v2l8 7 6 3 7-9 3-4v-3zm-32 6-4 3-7 1-2 3-8 1v3l13 6h5l5-13v-4zm76 0 1 5 3 9 4 4 7-3 9-4v-3l-8-1-4-4-7-1-2-2zm-131 1 3 10v15l9-3v-3l2-4 1-4h2v6h2l6-9-4-1-9-1-9-6zm100 3v4l1 1 1 11 11 2 1-3h-2v-2l3-1 1-4 4-2v-5l-9 6-1 3-5-5zm-13 1-5 6 1 3 3 1 1-7h2v-3zm-17 3v2l6 5 1-3zm60 1-1 4v9l-1 3 11 5v-3-3h3l2-2 5-1v-5l-10 3-2 2-4-8-1-4zm-73 2-4 7 1 3-3 1-1 7 10-3-1-5-1-6 1-3zm-33 3-3 5-6 2-2 4-6 3v2l8 2h10l1-1 1-7v-10zm55 0-3 6h10l-1-3-3-3zm82 0 1 15 1 4 10-1 9-2-1-3-6-3-2-4-7-3-2-3zm-121 3 1 3 5 3 1 2h2v-5zm40 5-3 4-5 10-5-1-7-6h-5l-2 2-2 11v4l-5-1 4-2 1-3v-8l-7 6h-6l-1 3-5 1-5 6-1 5-8 2v3l5 1h7l1-2 1 3-16-1-3 3 1 5 3 7 1 5h-4l2-2-2-9-3-3-2 8-5 5-4 7 2 4 6 9-1 3-8 4-4 1-1 7 2 2-2 1 1 7-1 5-1 2 2 12 3 3 1 8v3l2 1-1 3 3 4 15 2-3 9 1-7-2-2-11-1 1 3 3 1 2 4 1 7h3l2 5 3 4 5 2 4 2v6l2 1 2-1 2 4 4 1 9-4 5-1 1 12-2-9-5-1-8 4v2h6l4 2 1 7 1 3h2l1 5h4l-2 1 1 7 3 4 3-4-2-1v-7l1-5-8-3-1-3 4 3 5-1 9-6 4-1 2 6 4 8h5l7-8v-2h5l5 6-4-4-4-1-6 7v2l-2 1 3 1 2-2h8l6 1 10-1 2-3 9-1 5-1 5-2v-2l4 1 3-5 3-2 7-1v-2l5-2 4-3 1-6h2l2-3 5-1 1-4 3-1 1-4-4-9-1-5 15-2 2-3v-4h2l-1-7 2-5 3-4-2-1h-2l4-2v-6l-8-6-3-4 5-5 6-4v-7l-1-4-2-2-1-4h-2l2-4-1-4-6 7-1 5 4 3-5-2v-5l7-8-1-6-2-5-4-2-2-3-1-7h-2l-2-5-4-5-5-2-3-5-4-4h-2v-2l-7-4-5-1-4-4-1-2-9-3-5-1h-9l-2-4h-4l-6-1-3 5v2l-3 1 1-2 3-3-1-3-4 2h-7l-3-2 2 6-4-5zm78 0-2 4-1 7-2 2 1 4 8 5 2-4 8-1h2l1-5-3-1-12 2v-13zm-129 1-1 10 1 1-2 1v8l5-2 4-3-4-8v-6zm45 2-9 3-4-2-1 3 9 6h3l4-10zm-101 4 1 4 5 8 1 10 2 2 5-4 2-1 1-11 2 4 3-1 1-5 3-3-4-1-2 1h-9l-7-3zm42 5v3l6 2 4 1v-5zm-16 1-3 6v2l-4 1-2 6-4 2v4l14-1 4-2v-8l-2-10zm188 0-2 7v12l3 1 15 1-1-4-4-3-2-6-4-2-2-6zm-181 8 1 17 1 3 4-2 4-5-1-3-5-4-2-6zm175 0-2 1-2 7-4 3 2 4 4 6 2-1 2-20zm3 13-1 5h7l3 1 2-5zm-183 0-6 1 1 4 9-1v-3zm-26 3-4 4 2 6h3l2-9zm235 0 2 10h4l3 6h-4l5 10h3l3-11 8-7 3-3-1-1h-16l-6-4zm-230 3-2 8-2 2-2 8-3 3 1 3 4-1 11-4 2-2-1-6-5-11zm226 0-6 11-1 6 7 4 8 3h3l-1-4-2-3-1-7-3-3-1-7zm-218 6 2 6 2 4 5-1-2-3h-2l-1-6zm208 1-2 8 4-1 2-7zm-8 9 1 5 3 5 2-1 2-7-5-2zm-190 0-5 2 1 4 3 3 4-8zm200 4-2 4 6 1 1 2 4-2 1-2zm-211 1-6 2 1 3 4-1 5-2v-2zm12 7v7l-2 6 6-1 4-4-6-8zm-36 2-3 3 1 4 5 4 1-2-1-9zm6 1-1 3v7l-1 5-1 11 4-2 10-7 1-4-10-13zm248 0-7 9-3 4v3l12 9 4 1-1-4v-10l-2-3 1-8zm-239 4 2 4 5 5 3-2v-2l-5-2-1-3zm229 0-3 4-8 2 1 11 4-2 2-4-2-3 4 1 5-6-1-3zm-216 6-6 5 4 6 3-1 1-9zm5 0m-1 1m209 6-1 4 6 2v2l4-1v-2l-6-4zm-222 1-6 4 1 3h2v-2l5-2v-3zm212 3-5 3v2l-4 2 1 4 6 5 4-1-3-4 1-7 2-3zm-234 12-4 8-13 7-1 2 15 4h3l1 4 2 2h3v-11l-4 2v-1-5l-3-4 4 3h2l-2-11zm6 0 1 11 1 5v9h4l7-9 2-3-1-4-11-8zm243 1-2 3-5 1 2 4 5-2 4-5zm12-1-11 8-3 2 1 4 7 9 2 3 4-1-1-9 2-4v-7l1-4zm-245 2v2l6 4 4-1v-2l-6-1v-2zm14 2-5 7 6 5h2l-1-11zm207 1-1 11 7-4-1-4-2-3zm-214 8-4 6 1 3h2l1-3 5-3-3-3zm220 0-2 3 5 4 1 2 3-1-5-8zm0 16-1 3h-6l1 5 6-1 4-2-2-4zm-219 1-3 3 7 4 4-1 1-3-7-1zm12 1-3 5 1 4 7 2-1-4-3-7zm195 0-3 7v4l7-2 1-5-2-4zm-219 2v3l3 5v5l3 1 2 10h3l4-9 2-5-1-4-5-3zm242 0-15 6 1 6 6 12h3l1-8 3-3 2-7 2-2v-4zm-247 1-2 2-2 7-7 8-4 3v2h9l9-1 1-8-1-3h3l-2-5-3-5zm213 5-7 2-1 3 5 10 2-2v-5l1-4 5-2 1-2zm-188 2-3 5v5l3-1 1-4 5-4zm201 0-1 3 3 2 1 4 4 1-2-8-1-2zm-219 8-2 3v5l3 3 4-1-2-4-1-6zm34 6-1 9 9 1-2-4-4-6zm171 0-6 8 5 6 2 7h3l-1-10h-2l2-5v-5zm-183 2-2 4 6 2h5l1-4-2-1h-6zm186 0 2 6 11-1-2-5-8 1zm-197 6v3l5 3 3 7 3 1 3 7 4-1 1-9v-9l-14-2zm213 0-13 2v12l2 7h3l3-7 4-2 2-6 4-3v-3zm-187 2-4 1-1 2v9l4-2 1-7 2-2zm15 10-1 2 2 7 2 13 5-3-2-1 1-9 3-1-1-3-7-5zm135 0-9 7 1 2h2l1 8 1 4h2l1 2 1-15 6 2h7l-1-5h-6zm-137 3-3 2h-6l-1 5h7l4-1v-6zm45 6-8 6 1 3 6-1 4 1 2 3 3-1-5-10zm94 2-1 3-1 16 3 1 4-6 5-1 3-5 6-2-1-4-12-2zm-141 0-15 2v4l7 2 2 5 5 1 4 6 3-1-1-13-3-6zm116 3-6 3-4 1 1 4v8l-1 2 3 4 4-9-1-4 5 1 8 4h2v-5l-6-2-4-7zm-135 3-1 4 2 3-2 13-2 4v3l5-2 12-8 4 2 4-1-2-4-3-3-1-2-3 1-1 2-4-5h2v-3l-7-2zm181 0-4 3-5 2 1 4-3 2-1-2h-3l-3 5-3 1 1 4 8-1 9 5 4 3h3l-1-5-2-7v-8l1-6zm-137 1-1 4-7 1v5l4-1 7-3-1-5zm28 4v4l6 5 3 5 5 5 1-5-3-3-1-6 1-3-9-1zm35 1-8 1-1 12h-3l2 5 5-5 2-5v-1h3l7 8 3 1v-6h-4l-2-10zm-63 4-12 5-2 3 1 1 9 1 1 3 7 1 4 4h3l-1-6-4-10-2-2zm90 0-3 5-3 8v5l4-2 3-2 7-2 2-2 8-1-1-4-13-5zm-63 1-2 4-4 2 1 4 3-1v-2l4-1 1-4-1-2zm34 6-10 13 1 4 5-2h8l3-2 9 1-1-4-9-8-3-2zm-29 0-9 6-5 5v2h8l3 2h9l5 2 1-3-9-12zm80 10m-95 5v4l6 7 3 14h3l5-12 2-4 6-1 2-2v-3l-7-1-4-2-1 3 1 2-5-1-1-4z" fill="#150A07"/>
<path transform="translate(264,656)" d="m0 0 6 2 2 4v7l4-1 1 5 3 4 5 2 4 3 1 6h3l4 4 5-2 6-2h5l2 8-1 5h-1l-2-10-7 1-4 2-1 2 6-1 5 3 1 7v2l2 1 1 4h5l-1 2h-2l3 9h2v-2l-1-1v-7l2-5-7-1-2-2v-3l4 2 5-1 9-6h4l6 13h5l7-9 5-1 6 7-1 2-4-4v-2l-5 1-5 7h2l1-1h8l6 1 10-1 2-3 9-1 10-2v-2l4 1 2-5 4-3h7v-2l8-5 2-6h2l2-4h6v2l4 1 3 3 2 7 3 2 1-4 2 9 3 1 2-7h2l-2 8-1 2 6-1 2-1 16 5v2l-6-1-6-2h-5l5 5 5 6 1 6-2 4-7 1-8-6-4-6-1 2v6l4 12 1 2-2 1-1 7h-1l-1-8-11-7h-6l5 6 2 4v8l-3 3h-6l-6-5-3-6v-4l-3 3-1 5 1 9h-2l-1-3v-12l4-6-1-3-9 2v4l-5 1-2-2-6 4h-3l2 3 9 2 2 3h-7l3 6 1 8-3 5-1 1h-7l-4-5-2-7v-4h-4l-1 3-1-3 4-5 3-2v-2h-11l-1 4-5-3-4 1-6 1v3l6 2 3 3v2l-6-2 1 5v8l-3 5-3 2-6-1-3-4v-12l1-3-5 2-5 10-3 5h-3l-2-11-3-8-2-1-2 11-3 5-2 1h-7l-3-4v-9l4-7-6 1-7 8-2-1 6-8 5-4 8-1 1-3-5-1-3-3-3-1-1 4-4-2v-4l-10-2 2 4 5 2-2 1v23l-3-3v-14l-2-5-1-1-3 9-4 5-2 1h-6l-4-5 1-7 4-6 3-4-8 2-7 5h-4l-1 2-2-2 4-12v-7l-1-1-6 8-5 3-7-1-2-2v-8l5-6 5-3 1-2h-7l-7 3h-3v-2l15-5 4 2 6 1-4-5-1-5h-2l-1 3h-2v-4l-3-1 4-2-8-8-1 1v8l-6 11-2 4-2 5-2-3 2-6 5-7 1-6-7 5-9 2-5-3v-9l6-5 8-2-3-3h-12v-2l12-1 7 3 4 1v-2h5l2-4 5-3h2l1-5zm6 14-1 9 9 1-2-4-4-6zm-12 2-2 4 6 2h5l1-4-2-1h-6zm-11 6v3l5 3 3 7 3 1 3 7 4-1 1-9v-9l-14-2zm26 2-4 1-1 2v9l4-2 1-7 2-2zm15 10-1 2 2 7 2 13 5-3-2-1 1-9 3-1-1-3-7-5zm135 0-9 7 1 2h2l1 8 1 4h2l1 2 1-15 6 2h7l-1-5h-6zm-137 3-3 2h-6l-1 5h7l4-1v-6zm45 6-8 6 1 3 6-1 4 1 2 3 3-1-5-10zm94 2-1 3-1 16 3 1 4-6 5-1 3-5 6-2-1-4-12-2zm-141 0-15 2v4l7 2 2 5 5 1 4 6 3-1-1-13-3-6zm116 3-6 3-4 1 1 4v8l-1 2 3 4 4-9-1-4 5 1 8 4h2v-5l-6-2-4-7zm-135 3-1 4 2 3-2 13-2 4v3l5-2 12-8 4 2 4-1-2-4-3-3-1-2-3 1-1 2-4-5h2v-3l-7-2zm181 0-4 3-5 2 1 4-3 2-1-2h-3l-3 5-3 1 1 4 8-1 9 5 4 3h3l-1-5-2-7v-8l1-6zm-137 1-1 4-7 1v5l4-1 7-3-1-5zm28 4v4l6 5 3 5 5 5 1-5-3-3-1-6 1-3-9-1zm35 1-8 1-1 12h-3l2 5 5-5 2-5v-1h3l7 8 3 1v-6h-4l-2-10zm-63 4-12 5-2 3 1 1 9 1 1 3 7 1 4 4h3l-1-6-4-10-2-2zm90 0-3 5-3 8v5l4-2 3-2 7-2 2-2 8-1-1-4-13-5zm-63 1-2 4-4 2 1 4 3-1v-2l4-1 1-4-1-2zm34 6-10 13 1 4 5-2h8l3-2 9 1-1-4-9-8-3-2zm-29 0-9 6-5 5v2h8l3 2h9l5 2 1-3-9-12zm80 10m-95 5v4l6 7 3 14h3l5-12 2-4 6-1 2-2v-3l-7-1-4-2-1 3 1 2-5-1-1-4z" fill="#180C08"/>
<path transform="translate(817,485)" d="m0 0h28l2 1-3 17-6 30 8-6 12-11 4-3h37l-2 4-8 8-8 7-12 11-5 4 2 6 21 35-1 3h-29l-7-2-6-9-6-10-4 1-2 3h-2l-3 15-1 1-26 1-5-1 1-11 18-91z" fill="#040100"/>
<path transform="translate(637,609)" d="m0 0h9l13 2 12 5 10 9 2 4-5 5-17 13-4-2-7-6-7-2-11 1-8 4-6 7-3 7-1 5v10l3 7 1 3 5 2 8 2 11-1 8-5 4-4 5 2 15 15-1 4-9 8-12 6-13 3h-17l-16-4-11-6-8-8-6-12-2-9v-11l3-15 7-14 9-10 14-9 11-4z" fill="#F43700"/>
<path transform="translate(653,512)" d="m0 0h15l8 3 6 4 2-6h31v7l-13 66-2 4-3 1h-24l-2-1v-4l-11 5-4 1h-10l-8-3-9-6-7-10-3-11v-12l3-12 6-11 7-7 8-5zm8 25-6 4-3 6v13l5 6 9 1 6-4 4-6 1-3v-9l-4-6-3-2z" fill="#040100"/>
<path transform="translate(1018,633)" d="m0 0h30l2 5 6 33v2h2l2-5 14-24 6-10 2-1h28v4l-10 17-27 45-11 18-8 10-8 7-9 4-4 1h-18l-10-3-4-3 1-4 11-17 3-1 9 3 7-2-1-11-9-41-5-23z" fill="#F43700"/>
<path transform="translate(973,632)" d="m0 0h14l8 3 8 6 4 9 1 9-3 19-6 30-2 3h-30l1-13 5-24v-12l-2-2h-9l-5 3-3 5-8 39-1 3-2 1h-29l-1-5 14-70 2-3h28l1 5 11-5z" fill="#F43700"/>
<path transform="translate(718,632)" d="m0 0h20l12 4 9 6 6 8 4 10v16l-4 12-8 11-11 8-11 4-6 1h-17l-13-4-8-5-7-7-4-9-1-5v-12l4-13 6-9 7-7 14-7zm4 25-5 3-4 5-1 3v12l5 6 9 1 7-4 3-5 1-4v-8l-3-6-5-3z" fill="#F43700"/>
<path transform="translate(860,632)" d="m0 0h19l12 4 9 6 6 7 4 10v18l-4 11-6 9-8 7-12 6-10 2h-16l-11-3-10-5-7-7-4-8-2-10 1-12 4-12 7-9 7-6 12-6zm3 25-5 3-4 5-1 4v10l4 6 4 2 9-1 5-4 3-7v-10l-3-5-4-3z" fill="#F43700"/>
<path transform="translate(545,491)" d="m0 0h89l1 1-1 10-3 14-1 1-28 1-14 69-1 3-29 1-4-2 1-9 12-60 1-3h-28v-7l4-18z" fill="#020000"/>
<path transform="translate(752,512)" d="m0 0h26l12 3 4 2-1 5-8 15-5 1-8-3-12-1-8 2 1 3 20 4 10 5 6 7 1 4v8l-3 8-7 8-6 4-13 4-6 1h-16l-14-2-11-4-1-3 8-15 2-4 6 1 9 3 6 1h12l3-1v-3l-23-5-10-6-4-6-1-3v-8l3-9 6-7 6-4z" fill="#040100"/>
<path transform="translate(231,552)" d="m0 0h2l3 6h1l1-6h1l1 8-3 9-3 3v2l4-1 11-4 1-4-3-8 2-2 2 2 2 6 1 4 6-3v2h8l-5 8 2 4 6 9-2 4-8 4h-4v7l4 3h-4l1 7-1 5-1 2 2 12 3 3 1 8-1 3 3 1-1 3 2 3 13 2 2 1-1 7-2 5-1-4 1-6-7-2-5-1-1 3-3-4-3-6-2 4v3l5 2-1 2-6-1-2 4-1 6-5 2 2-6 2-5v-3l-5-3-11-3 4 7v5l3 3 1 2v6h-3l-1-2v-6l-3 3-1 5-5-1 3-1v-8l-1-3-2-1 6 1-5-9-2 1-2 7-7 8-5 5h3l-1 2h-5l-1-3 12-11 1-4-8 3h-8l-5-5 1-6 5-4 9-2 3 1-5-5-15-3 1-4 14-8 1-3h-14l-5-5-1-3 3-5 4-2h10l4 1-4-6-9-4-4-2 1-4 3 2 4 3 10 5v2h2l2 7h3v-6l2-4-6 1 2-3v-5l-1-4-11 3h-6v-2l11-2 3-5h-9l-6-4-2-3 1-6 4-3h8l8 4-3-7-6-5-1-3 5 2 6 5 3 6 2 6 3-5 3-3-3-1v-9zm29 15-5 2 1 4 3 3 4-8zm-11 5-6 2 1 3 4-1 5-2v-2zm12 7v7l-2 6 6-1 4-4-6-8zm-36 2-3 3 1 4 5 4 1-2-1-9zm6 1-1 3v7l-1 5-1 11 4-2 10-7 1-4-10-13zm9 4 2 4 5 5 3-2v-2l-5-2-1-3zm13 6-6 5 4 6 3-1 1-9zm5 0m-1 1m-13 7-6 4 1 3h2v-2l5-2v-3zm-22 15-4 8-13 7-1 2 15 4h3l1 4 2 2h3v-11l-4 2v-1-5l-3-4 4 3h2l-2-11zm6 0 1 11 1 5v9h4l7-9 2-3-1-4-11-8zm10 2v2l6 4 4-1v-2l-6-1v-2zm14 2-5 7 6 5h2l-1-11zm-7 9-4 6 1 3h2l1-3 5-3-3-3zm1 17-3 3 7 4 4-1 1-3-7-1z" fill="#1C100C"/>
<path transform="translate(484,583)" d="m0 0h1l-1 9 5-2 1 8-5-1 2 5v6h4l1-6 6-5 7-3 3 1-5 3-5 2-2 5 4-1h9l5 3 2 5-3 5-4 2h-9l-5-1 3 4v2l9 3 1 2-6-1-8-5-3-5v-3h-3l-2 8-1 3 5-1-1 7-5-1 1 9-1 2 4-1 5-5 8-3 5 1v1l-9 2-4 4 10 1 6 4 1 2v6l-3 3-7 1-8-3-3-2 1 5 5 5 2 4-5-2-7-8-1-7h-2l-4 7v2l2 2-1 5-5-2-1 9-1 2 5-2 2-2 4-1 18 1v1l-10 1h-8l-2 2 10 5 4 5v6l-3 3h-7l-6-3-4-4-1-3-1 6 2 5 5 7 3 13-3-1-2-9-8-14v-9l-2-1-5 5v4l-2 5h-2l-4-4 3-1 2-6 4-3 1-3-18 2v9l-1 4-3-1 2-1-1-2v-8h-2l1-9-2-1-5 7v2h-2l-1-4 4-5-2-6-2-5v-5l8-2 7-1 2-6h2l-2-7 2-5 3-4-6 1 3-3 4-1v-6l-5-2-7-7 3-5 8-5 1-7-4-1 3-2v-1h8v1h-5l1 11 5-5-2-5 5 1 4-5v-3l4-1v4l-5 6-1 3 4 2 9 7 3 1-2-4v-10l-2-3 1-6h2zm-18 16-1 4 6 2v2l4-1v-2l-6-4zm-10 4-5 3v2l-4 2 1 4 6 5 4-1-3-4 1-7 2-3zm15 13-2 3-5 1 2 4 5-2 4-5zm12-1-11 8-3 2 1 4 7 9 2 3 4-1-1-9 2-4v-7l1-4zm-24 5-1 11 7-4-1-4-2-3zm6 8-2 3 5 4 1 2 3-1-5-8zm0 16-1 3h-6l1 5 6-1 4-2-2-4zm-12 2-3 7v4l7-2 1-5-2-4zm23 2-15 6 1 6 6 12h3l1-8 3-3 2-7 2-2v-4zm-34 6-7 2-1 3 5 10 2-2v-5l1-4 5-2 1-2zm13 2-1 3 3 2 1 4 4 1-2-8-1-2zm-11 16 2 6 11-1-2-5-8 1z" fill="#140703"/>
<path transform="translate(810,605)" d="m0 0 13 1 1 3-20 100-2 2h-29l-1-1 1-11 17-85 2-8z" fill="#F43700"/>
<path transform="translate(428,678)" d="m0 0h6v2l4 1 3 3 2 7 3 2 1-4 2 9 3 1 2-7h2l-2 8-1 2 6-1 2-1 16 5v2l-6-1-6-2h-5l5 5 5 6 1 6-2 4-7 1-8-6-4-6-1 2v6l4 12 1 2-2 1-1 7h-1l-1-8-11-7h-6l5 6 2 4v8l-3 3h-6l-6-5-3-6v-4l-3 3-1 5 1 9h-2l-1-3v-12l4-6-1-3-9 2v4l-5 1-2-2-6 4h-3l2 3 9 2 2 3h-7l3 6 1 8-3 5-1 1h-7l-4-5-2-7v-4h-4l-1 3-1-3 4-5 3-2v-2l-4-2h3l-3-5-3-2v-2h2v-6h-4l-2-5v-8l2-3 9-1 10-2v-2l4 1 2-5 4-3h7v-2l8-5 2-6h2zm-5 12-9 7 1 2h2l1 8 1 4h2l1 2 1-15 6 2h7l-1-5h-6zm2 11-1 3-1 16 3 1 4-6 5-1 3-5 6-2-1-4-12-2zm-25 3-6 3-4 1 1 4v8l-1 2 3 4 4-9-1-4 5 1 8 4h2v-5l-6-2-4-7zm46 3-4 3-5 2 1 4-3 2-1-2h-3l-3 5-3 1 1 4 8-1 9 5 4 3h3l-1-5-2-7v-8l1-6zm-47 10-3 5-3 8v5l4-2 3-2 7-2 2-2 8-1-1-4-13-5z" fill="#1B0D09"/>
<path transform="translate(261,484)" d="m0 0 1 3 6 2 5 4 3 2-3 1-11-6 3 6 1 4v10l-1 5 9-4-1-4 4-6h2v6h2l2-5 3-3 2 1 1 3h-3l-2 5-6 2-3 5-5 2-1 2 8 1h10l1-7 2-3 4 2-2 1-1 9 2 2h-4v8l8-5 2-2 1 3-1 2-5 1-2 4h-2l-2 7-3 2h-5v3l12 1 1-8h1v9h-16l-2 2 1 5 3 7v5l-2 1h-8v-1l7-2-2-9-1-2-2 7-3 4-5 1-4-1v-2l-5-1-1-6-5-1h-3l-1-5h-3v6l-1 2h-2v-10l-4 2-1 1h-5v-2h2l-1-3-8-4-4-4v-8l6-3 9 3 4 3v2h3l-3-9-4-5-1-4 3-2 9 2 5 1 3-2-8-6-2-3v-8l3-3h6l6 4 4 5 2 2v-8l-3-10-2-3 3-1zm-26 34 1 4 5 8 1 10 2 2 5-4 2-1 1-11 2 4 3-1 1-5 3-3-4-1-2 1h-9l-7-3zm42 5v3l6 2 4 1v-5zm-16 1-3 6v2l-4 1-2 6-4 2v4l14-1 4-2v-8l-2-10zm7 8 1 17 1 3 4-2 4-5-1-3-5-4-2-6zm-5 13-6 1 1 4 9-1v-3z" fill="#2B1A16"/>
<path transform="translate(264,656)" d="m0 0 6 2 2 4v7l4-1 1 5 3 4 5 2 4 3 1 6h3l4 4 5-2 6-2h5l2 8-1 5h-1l-2-10-7 1-4 2-2 3-8-6-2 1 2 7 2 14-3 3-2-12-1-2-17 2v2l7 3 2 4 6 2 3 5-1 3-5-5v-2l-2 1-2 4-1-4-3-1v-2h2v-3h-6l-4-3 1 5 1 4-3 12-2 5 14-9h2l1-3 1 2 3 2h-4v2l-7 3-6 4h-4l-1 2-2-2 4-12v-7l-1-1-6 8-5 3-7-1-2-2v-8l5-6 5-3 1-2h-7l-7 3h-3v-2l15-5 4 2 6 1-4-5-1-5h-2l-1 3h-2v-4l-3-1 4-2-8-8-1 1v8l-6 11-2 4-2 5-2-3 2-6 5-7 1-6-7 5-9 2-5-3v-9l6-5 8-2-3-3h-12v-2l12-1 7 3 4 1v-2h5l2-4 5-3h2l1-5zm6 14-1 9 9 1-2-4-4-6zm-12 2-2 4 6 2h5l1-4-2-1h-6zm-11 6v3l5 3 3 7 3 1 3 7 4-1 1-9v-9l-14-2zm26 2-4 1-1 2v9l4-2 1-7 2-2zm13 13-3 2h-6l-1 5h7l4-1v-6z" fill="#281712"/>
<path transform="translate(477,520)" d="m0 0h2l-2 5-3 4v8l4-5 8-4 6 1 3 3v6l-4 5-6 3h-6l4 4h18l1-5 3-2-2 9-1 2h-3l-2 4-6 5-1 6 8-4h8l4 4v6l-5 5-3 1h-10l5 5 11 2v1h-11l-7-3-3-5-3-1v5l-2-2-4 1-1 2-8 1-3 4h-12l-2-2v-4h-2l1-7-6 8v3l5 3-2 1-6-3v-5l7-8-1-6-1-5-5-2-2-3v-7h-2l-5-9 2-2 6 9 7-3 6 1 2-3-7-2v-1h16l6-2-1-9 3-7zm-5 28 2 10h4l3 6h-4l5 10h3l3-11 8-7 3-3-1-1h-16l-6-4zm-4 3-6 11-1 6 7 4 8 3h3l-1-4-2-3-1-7-3-3-1-7zm-10 7-2 8 4-1 2-7zm-8 9 1 5 3 5 2-1 2-7-5-2zm10 4-2 4 6 1 1 2 4-2 1-2z" fill="#220E09"/>
<path transform="translate(314,457)" d="m0 0 6 1 4 4 2 5 1 7v3l-2 7 5-1-1 2h-2v5l4 1-1 3v6h4l2 4 2 8-2 1-1 3-8 2-3-2-2 2-6 2-2 11-1 4-8-1v-1l6-1 1-3v-7l-6 6-7-1v-2l-4-2-2-4v-7l-3-2v7h-1l-1-15-2-4h-9l-3-1v-2l6-1-6-9-1-2v-6l3-4h7l5 5 3 5v5l3-2 1-17 2-5 3 4 6 7v2l7 1-3-7v-10zm-17 12v16l-4 7v3l10-1 1-3h-2v-2l5-2 2-6-9-9zm14 14-2 3v5l4-2v-2l5-1v-3zm6 6-4 3-7 1-2 3-8 1v3l13 6h5l5-13v-4zm2 11-4 7 1 3-3 1-1 7 10-3-1-5-1-6 1-3zm-17 6 1 3 5 3 1 2h2v-5z" fill="#1D100D"/>
<path transform="translate(231,552)" d="m0 0h2l3 6h1l1-6h1l1 8-3 9-3 3v2l4-1 11-4 1-4-3-8 2-2 2 2 2 6 1 4 6-3v2h8l-5 8 2 4 6 9-2 4-8 4h-4v7l4 3h-4l-1 2-1-1-1-13-6 4 3 4v2l3-1v2h-10l2-3-5 2-3 1 1 3h-5l1-4 7-5-1-5-8-10h-2v9l-1 5-1 7-2 4-2-3 1-4 1-3-6 1 2-3v-5l-1-4-11 3h-6v-2l11-2 3-5h-9l-6-4-2-3 1-6 4-3h8l8 4-3-7-6-5-1-3 5 2 6 5 3 6 2 6 3-5 3-3-3-1v-9zm29 15-5 2 1 4 3 3 4-8zm-11 5-6 2 1 3 4-1 5-2v-2zm12 7v7l-2 6 6-1 4-4-6-8zm-36 2-3 3 1 4 5 4 1-2-1-9zm15 5 2 4 5 5 3-2v-2l-5-2-1-3z" fill="#1A0F0C"/>
<path transform="translate(393,580)" d="m0 0 4 2 3 5-5 5-19 14-3 3h55l3 1v8l-1 1-62 1-7 4h-7l-6-4-3-5v-7l4-6 6-3 12 1 13-10z" fill="#F43700"/>
<path transform="translate(329,451)" d="m0 0 4 2 5 1 4 10 3 5v2l5 1-1-2v-13l5-5 6 1 3 3 1 11-1 5 5-3 5-10 2 1-6 13v4l-9 1-1 3 4 1h-3l5 9 1 4-4-1 2 4v8l-1 6-4 2h-7l-2-1 2 5-3-1-3-5-5 1-6 12-4 1-6-4-3-4 12 6 3-9h-2l2-4-3-9v-2l-5 1v-9h4l6 5 3 1 9-12 1-3-4 2h-9l-3 2h-8v2l2 1h-3v-5l2-1-1-2 6 1 2 1-1-4 7-2v-2l2-2-6-11v-3h-3l-1 11-1 7-5 2-1 4h-2v-6l5-5 3-14-1-4zm16 25-3 4v2l11-1-1-4-1-1zm4 18-5 6 1 3 3 1 1-7h2v-3zm-17 3v2l6 5 1-3zm9 6-3 6h10l-1-3-3-3z" fill="#231713"/>
<path transform="translate(484,583)" d="m0 0h1l-1 9 5-2 1 8-5-1 2 5v6h4l1-6 6-5 7-3 3 1-5 3-5 2-2 5 4-1h9l5 3 2 5-3 5-4 2h-9l-5-1 3 4v2l9 3 1 2-6-1-8-5-3-5v-3h-3l-2 8-3 1 1-8-5 3-8 6h-2l4 8-2 2-4-6-3 1v2l-5-1 5-4-1-4-1-3h-3l-1 11-4-1-5 1 3-3 4-1v-6l-5-2-7-7 3-5 8-5 1-7-4-1 3-2v-1h8v1h-5l1 11 5-5-2-5 5 1 4-5v-3l4-1v4l-5 6-1 3 4 2 9 7 3 1-2-4v-10l-2-3 1-6h2zm-18 16-1 4 6 2v2l4-1v-2l-6-4zm-10 4-5 3v2l-4 2 1 4 6 5 4-1-3-4 1-7 2-3zm15 13-2 3-5 1 2 4 5-2 4-5z" fill="#20100B"/>
<path transform="translate(331,697)" d="m0 0h4l6 13h5l7-9 5-1 6 7-1 2-4-4v-2l-5 1-5 7h2l1-1h8l6 1 8-1 2 1v2l-4 1h-8v10l-1 2h-3l3 4 5-8-1-4 6 1 3 5 4 5-4-2-3-2h-3l-9 12 1 3 4-2h8l3-2 7 1v3h-8l-1 4-5-3-4 1-6 1v3l6 2 3 3v2l-6-2 1 5v8l-3 5-3 2-6-1-3-4v-12l1-3-5 2-5 10-2 1 1-5 4-8 2-3 7-3 1-3h-7l-4-4 7 1 3 1-2-5-8-10-6 3-6 2 1-4v2l3-3 4-2v-5h-2v-6l2-2-5-10-5 2-5 5-4-2zm6 15v4l6 5 3 5 5 5 1-5-3-3-1-6 1-3-9-1z" fill="#24110C"/>
<path transform="translate(394,457)" d="m0 0 6 1 3 5-1 10-3 6h5v2l-10 2v3l5 1 4 3 4-2 2 2-1 5-5-2-5-1-5-3 5 14 3 3 9-3 2 1-1 2-10 3-2 2-5-9v-4h-2v13l-1 4-4 2-9-1-4-4-1 3-3-3-4-1-2 5-4 5-2-1 5-6v-8l1 3h8l3 1 1-2h-2v-2l2-1 2-5 4-1-1-4-6 5h-2l-1 4-5-5-3-4h2l1-2 3 4v2l7-4 9-9-9 1-3-2h-9l-5-1-1-6 1 2 7 1h3l1-3 6 2-1 4 9-1 2 1-2-5-5-5-1-4 3 1 3 3 1-4 3-9z" fill="#1F120E"/>
<path transform="translate(416,469)" d="m0 0 2 1v14l2 4 2 1v-8l6-7 2-1h6l3 3v8l-5 8-2 3 5-1 1 3-2 1h-10l-1 2 2 1-3 2 1 19 13-2v3l-14 2-2-1v-13l-3 2-1 9-2 2v3l8 5 1 2-3 1-4-2v-2l-4-2-7-1-5-4-1-4h-5l-8-4v-1h6l7 3-1-6 3 1 3-3h5l1-6h-2v-2l6-2 1-3h-8l-1-3h8l4 2-2-5-3-4v-13z" fill="#190E0B"/>
<path transform="translate(483,624)" d="m0 0h2v2l5-1-1 7-5-1 1 9-1 2 4-1 5-5 8-3 5 1v1l-9 2-4 4 10 1 6 4 1 2v6l-3 3-7 1-8-3-3-2 1 5 5 5 2 4-5-2-7-8-1-7h-2l-4 7v2l2 2-1 5-5-2-1 4-1-5 2-2 2-7 2-2 1-4-6 1-6-3-1-1-2 3h-5l-2 2-1-5h-3l-3-6 2-5 3-3h7l5 2 2 4 2-1 1-3 4 2 3 5 3-1-1-2v-6l2-4z" fill="#251511"/>
<path transform="translate(200,589)" d="m0 0 4 2 4 3 10 5v2h2l2 7h3l1-3 1 2 4-1 3-1v2l3-1 4 1v-2l2-1h11v-6h1l1 8 2 1v8l-2 4-1 10h-1l-1-9h-9l-2-1v-2h-7l2 3-5-2-3-2 1 10 1 5v7l-3-3v-4l-6 4 1-8-2-4 6 3-2-5v-6l-9 3-2 1h-12l-5-5-1-3 3-5 4-2h10l4 1-4-6-9-4-4-2z" fill="#211512"/>
<path transform="translate(264,656)" d="m0 0 6 2 2 4v7l-6 5h-6l-2-1-3 5-8 1-2 3h-2v8l-6 11-2 4-2 5-2-3 2-6 5-7 1-6-7 5-9 2-5-3v-9l6-5 8-2-3-3h-12v-2l12-1 7 3 4 1v-2h5l2-4 5-3h2l1-5z" fill="#1E0F0B"/>
<path transform="translate(383,706)" d="m0 0 9 1-2 1 2 4v8l-1 2 2 3 3-8 3-2-1 5-4 10-1 5 7-5 5 1-9 6h-3l2 3 9 2 2 3h-7l3 6 1 8-3 5-1 1h-7l-4-5-2-7v-4h-4l-1 3-1-3 4-5 3-2v-2l-4-2h3l-3-5-3-2v-2h2v-6h-4l-2-5v-8l2-3z" fill="#1E0E09"/>
<path transform="translate(351,529)" d="m0 0 18 1 16 4 16 8 11 9 9 9 8 13 6 14 2 10 1 15-2 19-6 16-6 10-6 8-9 9-10 7-12 6-12 4-6 1h-25l-9-2-12-4-10-5-9-7-9-8-10-14-6-13-3-10-1-7v-22l3-14 5-12 7-12 11-12 12-9 17-8 14-3zm-6 2-16 4-14 7-11 8-10 10-7 10-4 7-4 11-3 14v18l4 17 8 16 8 11 10 10 13 8 11 5 12 3 5 1h18l18-4 16-8 9-7 6-5 8-10 8-14 4-12 2-8v-23l-4-16-8-16-7-9-7-8-11-8-16-8-16-4z" fill="#66514A"/>
<path transform="translate(428,678)" d="m0 0h6v2l4 1 3 3 2 7 3 2 1-4 2 9 3 1 2-7h2l-2 8-1 2 6-1 2-1 16 5v2l-6-1-6-2h-5l5 5 5 6 1 6-2 4-7 1-8-6-3-5v-5h-2l-1-2h-3l-2-4-19-3 1-2 11 1-2-4h-5l-6-7 1-7h2z" fill="#190C08"/>
<path transform="translate(301,695)" d="m0 0 5 1 4 2 1 7-3 7-5 2-2-1v5 1l2 1-7 4 3 3-5 1v3l2 2 4 2h-2v23l-3-3v-14l-2-5-1-1-3 9-4 5-2 1h-6l-4-5 1-7 4-6 3-4h-2v-2l7-1 1-4 2-1 2-7 4-4-1-1 1-9z" fill="#1B120F"/>
<path transform="translate(498,554)" d="m0 0v3l-7 6-1 6 8-4h8l4 4v6l-5 5-3 1h-10l5 5 11 2v1h-11l-7-3-3-5-3-1v5l-2-2-4 1-1 2-8 1-3 4h-12l-2-2v-4h-2l2-5 1-2 4-2h8v2l3-2h5v-2l7 1v-2l5 1 1-9 6-7z" fill="#1C0D08"/>
<path transform="translate(224,528)" d="m0 0 9 3 5 5v6h2l1-2 1 3h3v-2h2l1 3h7l2 4 3 1 3-1 9 6v8l-3 4-5 1-4-1v-2l-5-1-1-6-5-1h-3l-1-5h-3v6l-1 2h-2v-10l-4 2-1 1h-5v-2h2l-1-3-8-4-4-4v-8z" fill="#1C100D"/>
<path transform="translate(314,457)" d="m0 0 6 1 4 4 2 5 1 7v3l-2 7 5-1-1 2h-2v5l4 1-1 3v6h4l2 4 2 8-2 1-1 3-8 2-5-5-2-3v-5l4-3-4-4-2-5 1-4-5 3-3-1 2-4 5-1 1-7-5-1-4-7v-10z" fill="#130906"/>
<path transform="translate(248,555)" d="m0 0 3 2 2 6 1 4 6-3v2h8l-5 8 2 4 6 9-2 4-8 4h-4v7l4 3h-4l-1 2-1-1-1-13-1-2h10l5-3-4-7-4-1-1-2-11-2 4-2 1-2-10 2v2l-3-1 2-1v-2l8-4-1-6-2-5zm12 12-5 2 1 4 3 3 4-8z" fill="#E8D2CC"/>
<path transform="translate(351,529)" d="m0 0 18 1 16 4 16 8 11 9 9 9 8 13 6 14 2 10 1 15-2 16h-1v-28l-4-16-8-16-7-9-6-7-11-8-16-8-16-4h-28v-1z" fill="#6A4034"/>
<path transform="translate(455,591)" d="m0 0h8v1h-5v12l-6 2-4 4 1 4 5 4 15 1-4 2 1 2 5-2 4-4 2 1 1 2-6 4-3 1 4 8-2 2-4-6-3 1v2l-5-1 5-4-1-4-1-3h-3l-1 11-4-1-5 1 3-3 4-1v-6l-5-2-7-7 3-5 8-5 1-7-4-1 3-2z" fill="#FCE3DC"/>
<path transform="translate(434,626)" d="m0 0 2 2-2 9-5 12-9 14-11 11-10 7-12 6-12 4-6 1h-25l-4-2h25l18-4 16-8 9-7 5-4 8-10 8-14 4-12z" fill="#9E6E60"/>
<path transform="translate(317,495)" d="m0 0 3 1 1 4 4 2-5 5-1-3v-3l-3 7v2l-2 1-1 6 9-2 1-2-1 5-6 2-2 11-1 4-8-1v-1l6-1 1-3v-7l-2-3-1-5h2l-1-5-7-2v2l3 1-5 1v-9l13 4 1-5z" fill="#935B4B"/>
<path transform="translate(463,555)" d="m0 0 2 1-1 5-2 7 9 4 3 2-1 2-4-1-9-3-2 3h6v1l-7 1-4 1-1 2-1-2-6 8v3l5 3-2 1-6-3v-5l8-9h2l1-2 2 2 2-7-8-1v-2l7-2v2l3-1 2-6-6-2 3-1z" fill="#C79080"/>
<path transform="translate(329,493)" d="m0 0 4 1 5 5 5 3v-3l2 1v2l2 1 2-6h2l1-3 2 4-4 2-1 9-5-4v-2l-3 1-2 4 5 1-4 6-5 10-4 1-6-4-3-4 12 6 3-9h-2l2-4-3-9v-2l-5 1zm3 4v2l6 5 1-3z" fill="#F5D6CE"/>
<path transform="translate(278,629)" d="m0 0 2 4 5 13 7 12 12 13 8 6 15 8 9 3 6 1-2 2-9-2-13-5-12-8-11-10-10-14-6-13-2-8z" fill="#845F54"/>
<path transform="translate(299,468)" d="m0 0 5 4 2 5 13 2-1 4-7 1-1 6 2 1 1 2h-7l-2 4h-8v-1l5-1 3-4h-2v-2l5-3 1-5-9-9-1-3z" fill="#CA9C8F"/>
<path transform="translate(220,615)" d="m0 0 1 4-3 5-13 7 6 2 8 2 3 1 3 5h4v2h-5v2h-2v-2h-2l-3-5-5-2-12-2 1-4 14-8 1-5z" fill="#946354"/>
<path transform="translate(329,451)" d="m0 0 4 2 5 1 4 10 3 6-3 1-4-8v-3h-3l-1 11-1 7-5 2-1 4h-2v-6l5-5 3-14-1-4z" fill="#836D66"/>
<path transform="translate(238,585)" d="m0 0 9 9 3-3 3 1-5 6 3 3v2l3-1v2h-10l2-3-5 2-3 1 1 3h-5l1-4 7-5-1-5-4-6z" fill="#C1998D"/>
<path transform="translate(344,473)" d="m0 0h2v2l3 1-4 1-3 5 9-2 1 3-4 2h-9l-3 2h-8v2l2 1h-3v-5l2-1-1-2 6 1 2 1-1-4 7-2v-2l2-2z" fill="#B69084"/>
<path transform="translate(235,516)" d="m0 0 9 2 5 1 4-2 3 1-3 2 2 2h-9l-11-4 5 9 2 3 1 10 2 1v2h-3l-1-2-3 1v-6h2l-3-9-4-5-1-4z" fill="#DBA191"/>
<path transform="translate(266,540)" d="m0 0h3l1 12 3-1 3 3 4 9v5l-2 1h-8v-1l7-2-2-9-1-2-1 5h-1v-6l-4-2-4-3h3v-3h-10l-1 2-3-2h2v-2l10-2z" fill="#FBCDBF"/>
<path transform="translate(256,646)" d="m0 0 2 1-2 4v3l5 2-1 2-6-1-2 4-1 6-5 2 2-6 2-5v-3l-5-3-4-2v-3l6 2 3 2h3l1-2-6-1v-1z" fill="#BD9D94"/>
<path transform="translate(473,585)" d="m0 0 3 1-2 4-4 5-1 3 4 2 6 4-1 3-4-1 1-2-5-2-4-2-1 3 3 1-9 1v-2l5-5-2-5 5 1 4-5v-3z" fill="#A57D71"/>
<path transform="translate(234,616)" d="m0 0 4 1v2l5 2 5 1v-2l4-1-4 7 5 5-4 1v-2l-4-1-3 5v3l-4 1-1-4 5-6-1-4-5-4z" fill="#9C857F"/>
<path transform="translate(452,643)" d="m0 0 1 2 3 1h-3l-1 5-2 6-4-1 1-1-11 1-1 3 4 9 3 1-4 6-2 5h-2l-1-4 4-5-2-6-2-5v-5l8-2 7-1 2-6h2z" fill="#EFB7A7"/>
<path transform="translate(286,499)" d="m0 0 2 1 1 3h-3l-2 5-6 2-3 5-7 3v-5l6-2-1-4 4-6h2v6h2l2-5z" fill="#BE9184"/>
<path transform="translate(448,708)" d="m0 0 1 2 3-1-2 5-1 2v6l4 12 1 2-2 1-1 7h-1l-1-8-11-7 2-2 7 5 3 1-4-12v-8z" fill="#664136"/>
<path transform="translate(261,576)" d="m0 0 4 2 6 9-2 4-8 4h-4v7l4 3h-4l-1 2-1-1-1-13-1-2h10l5-3-4-7-4-1z" fill="#F4C7BA"/>
<path transform="translate(403,675)" d="m0 0h2l-1 3-12 7-17 6-6 1h-25l-4-2h25l18-4 16-8z" fill="#753E2E"/>
<path transform="translate(260,522)" d="m0 0 3 2h-2l-2 6-3 3h-2l-1 6-5 2-1 3v-3l-2-1 4-3h2l-1-6 2-6 2 2v3l2-1 2-6z" fill="#6D473C"/>
<path transform="translate(469,647)" d="m0 0 5 2-2 2-11 3 4 11-2 3-8-1 1-2 6 1-3-10-7 2v-2l5-2 2-4v2l10-3z" fill="#B48071"/>
<path transform="translate(310,508)" d="m0 0h2l1 9 9-2 1-2-1 5-6 2-2 11-1 4-8-1v-1l6-1 1-3v-7l-2-3-1-5h2z" fill="#BF9C91"/>
<path transform="translate(471,548)" d="m0 0 3 4 1 6 4-1 2 7h-4l4 5-1 6-4-5-1-2v-7l-3-1-1-2v-7l-2-1h2z" fill="#995D4C"/>
<path transform="translate(290,510)" d="m0 0 4 2-2 1-1 9 2 2h-4l1 10-3-1-1-4 1-5h-7l-3-1-1 3v-3l-2-1 13-2 1-7z" fill="#C8A79E"/>
<path transform="translate(738,732)" d="m0 0h16l1 1v9l-3 1 1-9-5 2-2 7h-2l1-9h-5l-3 9-2-2z" fill="#7A4B3E"/>
<path transform="translate(904,732)" d="m0 0h14l2 1v8l-2 2-1-3 1-6-5 2-2 7h-2l1-9h-5l-2 9h-3l2-10z" fill="#824837"/>
<path transform="translate(696,728)" d="m0 0h2l-2 14-5 2-5-1-2-3 1-6 2-2h7zm-7 6-2 1v6l3 1 4-3-1-5z" fill="#A2877F"/>
<path transform="translate(234,656)" d="m0 0h4v5l3 3 1 2v6h-3l-1-2v-6l-3 3-1 5-5-1 3-1v-8l-1-3-2-1 6 1z" fill="#A89E9B"/>
<path transform="translate(425,501)" d="m0 0h4l3 5 2 1v-6h2l2 5 2 2h-2v3l8 4-2 3-8-5-1-3-7-3-4-5z" fill="#A17669"/>
<path transform="translate(338,531)" d="m0 0 1 2-15 5-9 5-11 8-7 7-2-2 8-8 14-9 13-6z" fill="#9D6757"/>
<path transform="translate(990,728)" d="m0 0h2l-2 13-1 2-6 1-4-2-1-4 3-5 1-1h7zm-7 6-2 2v5h6l1-6z" fill="#665A57"/>
<path transform="translate(926,732)" d="m0 0h7l3 3-1 6-4 3h-5l-3 3 1-13zm2 2-2 3 1 4h5l2-2-1-4z" fill="#846156"/>
<path transform="translate(336,712)" d="m0 0 1 4 4 2v2l3 1 3 5 4 6-3 1-6-8-6 3-6 2 1-4v2l3-3 4-2v-5h-2z" fill="#C48E7F"/>
<path transform="translate(309,707)" d="m0 0 4 1 1 4h5l-1 2h-2l3 9 2 1-1 3-3 1-3-9-5-1-6 2-4-1 12-5-1-5z" fill="#C48877"/>
<path transform="translate(230,585)" d="m0 0h1v7l-1 5-1 7-2 4-2-3 1-4 1-3-6 1 2-3v-5l-1-4 6 4h2z" fill="#C29183"/>
<path transform="translate(264,718)" d="m0 0 2 4-4 12 14-9h2l1-3 1 2 3 2h-4v2l-7 3-6 4h-4l-1 2-2-2 3-9z" fill="#A67769"/>
<path transform="translate(721,728)" d="m0 0h5l2 3h-8l1 3 5 2 1 5-5 3-6-1v-3l8 1-1-3-5-3-1-4z" fill="#856B63"/>
<path transform="translate(761,732)" d="m0 0h7l3 2-1 7-4 3-6-1v3h-2v-6zm2 2-2 5 1 2h5l2-2-1-5z" fill="#A07265"/>
<path transform="translate(825,728)" d="m0 0h1l-1 14-5 2-5-1-1-1v-7l3-3h7zm-7 6-3 3 1 4h6l1-6z" fill="#5F443C"/>
<path transform="translate(246,679)" d="m0 0 1 2 5 2 3 7 4 2 1 4-3 2-1-5h-2l-1 3h-2v-4l-3-1 4-2-7-7z" fill="#AD7362"/>
<path transform="translate(443,672)" d="m0 0 3 4v2l13-2 1 3-13 1v9l-1 4-3-1 2-1-1-2v-8h-2z" fill="#B37F70"/>
<path transform="translate(231,552)" d="m0 0h2l3 6h1l1-6h1l1 8-3 9-5 5-1-4 4-5-3-1v-9z" fill="#C4A49A"/>
<path transform="translate(287,693)" d="m0 0 2 2 3 18-3 3-2-12-1-2-11 1-2-1v-2l14-1z" fill="#815D53"/>
<path transform="translate(238,681)" d="m0 0 4 1 1 8-6 11-2 4-2 5-2-3 2-6 5-7 1-6-1-1z" fill="#C38775"/>
<path transform="translate(892,729)" d="m0 0h3l3 10v4l-3-1-1-2h-6l-4 3 1-4 6-9zm0 4-2 2v3h5l-1-5z" fill="#4D403C"/>
<path transform="translate(302,671)" d="m0 0 4 2 13 8 11 5 12 3-2 2-9-2-13-5-12-8z" fill="#925D4D"/>
<path transform="translate(260,643)" d="m0 0 1 2 3 1-1 3 2 3 13 2 2 1-1 7-2 5-1-4 1-6-7-2-5-1-1 3-3-4-3-8h2z" fill="#FBC4B4"/>
<path transform="translate(226,650)" d="m0 0 2 1-2 7-7 8-5 5h3l-1 2h-5l-1-3 12-11 1-4v-3h2z" fill="#AE887D"/>
<path transform="translate(658,732)" d="m0 0h9l1 3-3 8-6 1-4-3v-6zm1 2-2 3 1 4 3 1 4-3-1-4z" fill="#836055"/>
<path transform="translate(299,726)" d="m0 0 6 1 1 2 7 1 6 5v2l-5-1-3-3-3-1-1 4-4-2v-4l-7-1z" fill="#704336"/>
<path transform="translate(261,484)" d="m0 0 1 3 6 2 5 4 3 2-3 1-11-6 3 6 1 6-2 1-4-13-2-3 3-1z" fill="#E1B6A9"/>
<path transform="translate(377,736)" d="m0 0 7 1v3h-8l-1 4-5-3-4 1-6 1-1 2v-3h3v-2l4-2h8z" fill="#885F53"/>
<path transform="translate(868,732)" d="m0 0h6l3 3v3h-9l1 2 6 1-2 3-6-1-1-1v-8zm2 2-1 3h5l-1-3z" fill="#574A46"/>
<path transform="translate(969,732)" d="m0 0h5l2 2v4h-9l1 2h7l-1 3-5 1-4-3v-6zm1 2-1 3 5-1-1-2z" fill="#4E3E3A"/>
<path transform="translate(455,591)" d="m0 0h8v1h-5v12l-6 2-4 4 1 4 4 3v2l-4-2-5-6 5-5 6-4 1-7-4-1 3-2z" fill="#FABFAE"/>
<path transform="translate(431,579)" d="m0 0 2 3 3 8 2 22-2 16h-1v-28l-5-20z" fill="#573E37"/>
<path transform="translate(299,468)" d="m0 0 5 4 2 5 13 2-2 4-9-2-9-9-1-3z" fill="#694B42"/>
<path transform="translate(248,555)" d="m0 0 3 2 4 12-6 2v2l-6 1v2l-3-1 2-1v-2l8-4-1-6-2-5z" fill="#A47669"/>
<path transform="translate(213,554)" d="m0 0 5 2 6 5 3 6 2 7h-4l-2-2-2-9-7-6z" fill="#A47163"/>
<path transform="translate(803,732)" d="m0 0h6l2 2v4h-8v3h7l-1 2-4 1-4-2-1-6zm2 2-1 3h5l-1-3z" fill="#76625C"/>
<path transform="translate(409,550)" d="m0 0 4 2 8 8 8 13 2 4-1 3-9-15-11-13z" fill="#624B45"/>
<path transform="translate(373,459)" d="m0 0 2 1-6 13v4h-9l2-6 5-1z" fill="#9B6758"/>
<path transform="translate(483,670)" d="m0 0 18 1v1l-10 1h-8l-2 2 1 2-7 1-1-3 5-4z" fill="#8B6E65"/>
<path transform="translate(269,670)" d="m0 0 1 3-1 6h5l-1 2h-4l-1 2-2 1v-4l-14-1 2-3 13 1v-5h2z" fill="#C78977"/>
<path transform="translate(444,530)" d="m0 0h2l1 4v9l3 1-4 1v6l-3 1v-10l2-10-2-1z" fill="#BD8473"/>
<path transform="translate(350,490)" d="m0 0 1 4-6 5h-2v3l-5-2-5-4v-2l-4-2h4l6 5 3 1 5-7z" fill="#90675B"/>
<path transform="translate(394,494)" d="m0 0 2 3 3 7 2 2 9-3 2 1-1 2-10 3-2 2-5-9v-4h-2z" fill="#8C5F51"/>
<path transform="translate(460,700)" d="m0 0 12 3 5 2v2l-6-1-6-2h-5l1 3h-7l2-1 1-4z" fill="#A0776C"/>
<path transform="translate(455,528)" d="m0 0 1 2h2l1-2h2l2 5v4l5 4v2l-3 1-5-5-2-6-4-2z" fill="#8F5545"/>
<path transform="translate(454,516)" d="m0 0 12 3 5-2h5l-4 3-12 3-7-3z" fill="#B18B81"/>
<path transform="translate(329,451)" d="m0 0 4 2 5 1 4 10 3 6-3 1-4-8v-3h-5l-1-5z" fill="#FCE5DE"/>
<path transform="translate(276,711)" d="m0 0 2 2 6 2 3 5-1 3-5-5v-2l-2 1-2 4-1-4-3-1v-2h2z" fill="#8F5545"/>
<path transform="translate(221,623)" d="m0 0 6 3 1-3v2l2 1 1 5v7l-3-3v-4l-6 4 1-8z" fill="#C9A094"/>
<path transform="translate(484,583)" d="m0 0h1l-1 9 5-2 1 8-5-1-1 2-2-7-1-4 1-3h2z" fill="#A56E5E"/>
<path transform="translate(380,492)" d="m0 0 2 2-7 6h-2l-1 4-5-5-3-4h2l1-2 3 4v2l7-4z" fill="#CB9889"/>
<path transform="translate(394,486)" d="m0 0 5 1 4 3 4-2 2 2-1 5-5-2-5-1-5-4z" fill="#9E6B5D"/>
<path transform="translate(701,732)" d="m0 0h6v2l-4 2 5 3-2 4-6 1-2-3 2-1 5 1-1-2-4-1-1-4z" fill="#977A71"/>
<path transform="translate(331,697)" d="m0 0h4l6 13h-3l-5-10-5 2-5 5-4-2z" fill="#FBD2C6"/>
<path transform="translate(628,728)" d="m0 0h7l1 2h-8l-1 5h5l-4 2h-2l1 4 6 1v1h-9l-1-3 3-11z" fill="#604239"/>
<path transform="translate(465,679)" d="m0 0 2 1-1 4-4 3 1 5-2 3h-2l-4-4 3-1 2-6z" fill="#7A4F42"/>
<path transform="translate(423,509)" d="m0 0h1l1 13 13-2v3l-14 2-2-1v-8z" fill="#B37462"/>
<path transform="translate(470,688)" d="m0 0 3 2 2 5 5 7 3 13-3-1-2-9-8-14z" fill="#A97A6C"/>
<path transform="translate(450,479)" d="m0 0h1l1 7 3 2-2 1-4 12-2-1 3-10-4 2-3-1 3-3h3z" fill="#D97A5F"/>
<path transform="translate(672,732)" d="m0 0h7l2 1v7l-1 3h-2v-8h-4l-3 8h-1l1-10z" fill="#8C5140"/>
<path transform="translate(487,649)" d="m0 0 2 1v6l4 6 4 3v2l-5-2-7-8v-7z" fill="#8C5C4E"/>
<path transform="translate(444,705)" d="m0 0 1 4-7 3 1 4-3 1-1 3-1-4-2-1 8-8h4z" fill="#6F4F46"/>
<path transform="translate(475,617)" d="m0 0 2 1 1 2-6 4-3 1 4 8-2 2-5-8v-2h2l1-3z" fill="#9E7B70"/>
<path transform="translate(223,580)" d="m0 0 1 3-2 4-11 3h-6v-2l11-2 3-5z" fill="#B0867A"/>
<path transform="translate(297,464)" d="m0 0h1v21l-2 3-1-2v-17z" fill="#997D75"/>
<path transform="translate(363,506)" d="m0 0 1 3h8l4 1v2h-2l-1 3-3-3-4-1-2 5-4 5-2-1 5-6z" fill="#D5AA9E"/>
<path transform="translate(331,736)" d="m0 0 6 1 5 2v5l-5-1-1-4-9 1v-3z" fill="#995B49"/>
<path transform="translate(791,727)" d="m0 0 4 2-4 1v2h2v2h-4l-1 8-2 1v-11z" fill="#956D61"/>
<path transform="translate(359,478)" d="m0 0 1 2 7 1h3l1-3 5 1-4 4 2 1-9 1-5-1z" fill="#C1A097"/>
<path transform="translate(956,727)" d="m0 0 4 2-4 1 1 4h-2l-2 9h-2v-11h2l1-4z" fill="#7D574C"/>
<path transform="translate(355,700)" d="m0 0 4 1 5 6-1 2-4-4v-2l-5 1-5 7-7 1 4-2 7-9z" fill="#FDEAE4"/>
<path transform="translate(864,727)" d="m0 0 3 1-2 4 1 2h-4l-1 8-2 1v-11z" fill="#75564D"/>
<path transform="translate(308,688)" d="m0 0h5l2 8-1 5h-1l-2-10-7 1-4 2-2 3 1-5z" fill="#FCD8CE"/>
<path transform="translate(843,728)" d="m0 0 1 4-1 9 7 1-1 2h-8l-1-1 1-11z" fill="#706461"/>
<path transform="translate(439,727)" d="m0 0 7 4 4 1h2l2 4-2 1-1 7h-1l-1-8-11-7z" fill="#CE826C"/>
<path transform="translate(252,525)" d="m0 0 2 2-2 6 2 4-4 4h-2l-1 3v-3l-2-1 4-3h2l-1-6z" fill="#A9918A"/>
<path transform="translate(372,480)" d="m0 0h5l-1 4 9-1 2 2-7 2-5-1-1-3h-2z" fill="#724D42"/>
<path transform="translate(216,635)" d="m0 0 6 1 3 5h4v2h-5v2h-2v-2h-2l-3-5z" fill="#805E54"/>
<path transform="translate(203,629)" d="m0 0 3 3 11 2-2 3-15-3 1-4z" fill="#D2A193"/>
<path transform="translate(460,568)" d="m0 0 5 2 9 3-1 3-4-1-9-3-1-2z" fill="#BD8A7B"/>
<path transform="translate(266,540)" d="m0 0h3l-1 5-11 1-1 2-3-2h2v-2l10-2z" fill="#C2735C"/>
<path transform="translate(483,624)" d="m0 0h2v2l5-1-1 7-5-1-1 3-1-4 1-3z" fill="#BC8C7F"/>
<path transform="translate(200,589)" d="m0 0 4 2 4 3 9 4-3 2-14-7z" fill="#C78572"/>
<path transform="translate(232,561)" d="m0 0 1 2 5-2v6l-5 7-2-4 4-5-3-1z" fill="#A98378"/>
<path transform="translate(311,520)" d="m0 0h4v8l-2 7-8-1v-1l6-1 1-3v-7z" fill="#FCE0D7"/>
<path transform="translate(435,507)" d="m0 0h5l-2 1v3l8 4-2 3-8-5z" fill="#6F4032"/>
<path transform="translate(301,502)" d="m0 0 12 4-4 2-6-1v2l3 1-5 1z" fill="#F6E8E4"/>
<path transform="translate(399,712)" d="m0 0 10 5 3 2-3 1-10-3-3-2v-2z" fill="#A7857B"/>
<path transform="translate(250,619)" d="m0 0 2 1-4 6 5 5-4 1v-2l-4-3 1-2h-2v-2l4-1v-2z" fill="#FCE4DD"/>
<path transform="translate(450,576)" d="m0 0 2 1-6 7-1 5 5 3-2 1-6-3v-5z" fill="#FCDFD6"/>
<path transform="translate(240,530)" d="m0 0h2l1 10 2 1v2h-3l-1-2-3 1v-6h2z" fill="#936254"/>
<path transform="translate(422,688)" d="m0 0 2 2-9 7h-9l1-2h7v-2z" fill="#AA6E5D"/>
<path transform="translate(238,681)" d="m0 0 4 1 1 8-1 3h-2l-2-6z" fill="#8A5D50"/>
<path transform="translate(274,668)" d="m0 0 2 1 2 5 2 4-2 2-6-8v-2l-2-1z" fill="#A98074"/>
<path transform="translate(260,643)" d="m0 0 1 2 3 1-1 3 2 3-1 5-3-4-3-8h2z" fill="#B09289"/>
<path transform="translate(468,596)" d="m0 0 1 2 4 2 6 4-1 3-4-1 1-2-5-2-2-2z" fill="#A2796D"/>
<path transform="translate(322,518)" d="m0 0 12 6 2-6h2l-2 5-2 3-5-1-7-6z" fill="#FEFEFE"/>
<path transform="translate(447,500)" d="m0 0h1l2 8 2 6-5-2-1-3v-8z" fill="#572E22"/>
<path transform="translate(904,732)" d="m0 0h7l-2 2h-4l-2 9h-3l2-10z" fill="#8B665B"/>
<path transform="translate(476,657)" d="m0 0 4 4-1 5-5-2-1 4-1-5z" fill="#B47A69"/>
<path transform="translate(434,543)" d="m0 0 4 4 4 5 1 2h-2l-1 3v-3h-2l-5-9z" fill="#B58B7F"/>
<path transform="translate(738,732)" d="m0 0h8l-3 2h-3l-3 9-2-2z" fill="#8F6F65"/>
<path transform="translate(969,732)" d="m0 0h5l2 4h-3l-3-1-1 2h-2l-2 4v-6z" fill="#A47F74"/>
<path transform="translate(264,718)" d="m0 0 2 4-4 12 2 1h-2l-1 2-2-2 3-9z" fill="#CD6C4F"/>
<path transform="translate(409,726)" d="m0 0 3 1v2l-3 1v4l-5 1-1-3 5-5z" fill="#8D4C3A"/>
<path transform="translate(452,643)" d="m0 0 1 2 3 1h-3l-1 5-2 6-4-1 4-10h2z" fill="#B8725E"/>
<path transform="translate(261,605)" d="m0 0 5 3 2 4-5 5-4 2 5-6v-5l-3-1z" fill="#FAAE98"/>
<path transform="translate(505,594)" d="m0 0 3 1-5 3-5 2-3 3-3 1 2-4 7-5z" fill="#B97865"/>
<path transform="translate(504,543)" d="m0 0 1 2-2 4v5l-5-1-4-1v-2h7l1-5z" fill="#FABFAE"/>
<path transform="translate(414,525)" d="m0 0 8 6 3 1v2l-3 1-4-2v-2l-4-2-2-2h2z" fill="#B8725E"/>
<path transform="translate(431,493)" d="m0 0 1 2 5-1 1 3-2 1h-6l-4-4z" fill="#8E5241"/>
<path transform="translate(261,487)" d="m0 0 5 1 7 5 3 2-3 1-12-7z" fill="#DEB9AE"/>
<path transform="translate(328,482)" d="m0 0 6 1v2h2v2h-8v2l2 1h-3v-5l2-1z" fill="#AD9D98"/>
<path transform="translate(313,714)" d="m0 0h2l5 10v3l-3 1-3-9-2-4z" fill="#84574A"/>
<path transform="translate(246,597)" d="m0 0 5 4v2l3-1v2h-10l2-3-2-1v-2z" fill="#FCDAD1"/>
<path transform="translate(776,728)" d="m0 0h2l-2 12-1 3h-2l2-14z" fill="#795D54"/>
<path transform="translate(892,729)" d="m0 0h3l1 5-2 2v-3l-3 2-2 3-2-1 2-4z" fill="#897873"/>
<path transform="translate(372,710)" d="m0 0 4 1v2l-4 1h-8l-2-2z" fill="#A5604C"/>
<path transform="translate(475,562)" d="m0 0 4 5 2 2-1 6-4-5-1-2z" fill="#804C3D"/>
<path transform="translate(332,750)" d="m0 0h1l2 10v4l3 1-1 3h-3l-2-11-1-5z" fill="#D2856F"/>
<path transform="translate(761,732)" d="m0 0 4 2-2 1-3 11h-2v-6z" fill="#4E362F"/>
<path transform="translate(306,730)" d="m0 0h7l6 5v2l-5-1-5-4z" fill="#743F2F"/>
<path transform="translate(246,679)" d="m0 0 1 2 5 2 2 3-1 3v-2l-6-2-2-3z" fill="#7D665F"/>
<path transform="translate(225,615)" d="m0 0h3l2 6v4h-2v-2h-2l-1-2z" fill="#7C4D3F"/>
<path transform="translate(498,554)" d="m0 0v3l-7 6-2 2h-2l2-4z" fill="#A47467"/>
<path transform="translate(388,515)" d="m0 0h6l7 3 1 4-1-2h-5l-8-4z" fill="#A36857"/>
<path transform="translate(286,499)" d="m0 0 2 1 1 3h-3l-2 5h-3l1-5z" fill="#7D5F57"/>
<path transform="translate(329,493)" d="m0 0 4 1 5 5 1 2-4-2h-1l-4 2-1-3z" fill="#FEFEFE"/>
<path transform="translate(416,469)" d="m0 0 2 1-1 13-2 4v-13z" fill="#DBA696"/>
<path transform="translate(308,742)" d="m0 0 2 1v2l-6 5-3 4-2-1 6-8z" fill="#91736A"/>
<path transform="translate(721,728)" d="m0 0h5l2 3h-8v3h-3l1-4z" fill="#A28A83"/>
<path transform="translate(401,701)" d="m0 0 1 4-5 2-5 1-2-2 7-2v-2l4 1z" fill="#A86B5A"/>
<path transform="translate(423,698)" d="m0 0 6 1-4 2-1 12h-1l-1-13z" fill="#EAB3A3"/>
<path transform="translate(278,629)" d="m0 0 2 4 4 12-2 1-5-13z" fill="#996E62"/>
<path transform="translate(444,530)" d="m0 0h2l1 4v9l-3-1v-8l1-2-2-1z" fill="#C4B7B4"/>
<path transform="translate(398,477)" d="m0 0 1 2h5v2l-9 2v-2l-2-1z" fill="#673728"/>
<path transform="translate(299,468)" d="m0 0 5 4 2 5 3 1-3 1-7-7-1-3z" fill="#E4D2CC"/>
<path transform="translate(640,732)" d="m0 0h5v2l-3 1-3 8-2-2z" fill="#85594C"/>
<path transform="translate(941,728)" d="m0 0 2 1-3 13-2 1 2-14z" fill="#7D574C"/>
<path transform="translate(298,525)" d="m0 0 2 3-1 2-5 1-2 4h-2l1-4 6-4z" fill="#944F3B"/>
<path transform="translate(408,494)" d="m0 0h8l4 3-3 1-8-1z" fill="#7A2208"/>
<path transform="translate(868,732)" d="m0 0h6l3 3-3 2-1-2h-3l-2 2-2-1z" fill="#AD867A"/>
<path transform="translate(696,728)" d="m0 0h2l-2 11h-2l-2-6h3z" fill="#6F483D"/>
<path transform="translate(400,730)" d="m0 0 5 1-9 6h-2l2-4z" fill="#431608"/>
<path transform="translate(341,722)" d="m0 0 4 2 6 7-3 2-7-10z" fill="#895C4E"/>
<path transform="translate(367,718)" d="m0 0 6 1 3 5 4 5-10-5 2-1v-2l-5-1z" fill="#D79D8C"/>
<path transform="translate(369,721)" d="m0 0h3v2h-2l-2 5-4 4-1-2z" fill="#774334"/>
<path transform="translate(457,621)" d="m0 0h1v10l-4-1-5 1 3-3 4-2z" fill="#A4847A"/>
<path transform="translate(240,600)" d="m0 0 4 1-4 3h-2l1 3h-5l1-4z" fill="#CFA294"/>
<path transform="translate(266,544)" d="m0 0h3l1 8h2v2l-4-2-4-3h3v-3l-2-1z" fill="#FDF0EC"/>
<path transform="translate(274,495)" d="m0 0h12l-3 3-9-1z" fill="#5D2211"/>
<path transform="translate(394,486)" d="m0 0 5 1 3 3v2l-5-1-4-3z" fill="#816157"/>
<path transform="translate(338,459)" d="m0 0h2l5 11-3 1-4-8z" fill="#B47A69"/>
<path transform="translate(295,743)" d="m0 0 2 2 1 13-3-3z" fill="#964C36"/>
<path transform="translate(693,739)" d="m0 0h3l-1 4-7 1-2-1v-2l6-1z" fill="#756E6C"/>
<path transform="translate(649,732)" d="m0 0 5 1-4 4-2 6h-2l2-10z" fill="#593E36"/>
<path transform="translate(289,699)" d="m0 0h1l2 14-3 3-1-12z" fill="#B16E5A"/>
<path transform="translate(291,688)" d="m0 0h2l5 5-1 3-9-6z" fill="#8F6D63"/>
<path transform="translate(426,650)" d="m0 0 1 2-7 11-3-1z" fill="#734B3F"/>
<path transform="translate(460,536)" d="m0 0 5 2 3 3v2l-3 1-5-5z" fill="#734436"/>
<path transform="translate(415,737)" d="m0 0 2 4 1 11h-2l-1-3z" fill="#CA6F54"/>
<path transform="translate(781,732)" d="m0 0h2l-1 9-1 2h-2l1-9z" fill="#9F918D"/>
<path transform="translate(990,728)" d="m0 0h2l-1 8-2-2-2 1-5-2v-1h7z" fill="#CA765E"/>
<path transform="translate(279,715)" d="m0 0h5l3 5-1 3-5-5v-2z" fill="#66514B"/>
<path transform="translate(313,702)" d="m0 0 10 5-1 3v-2l-7-1-2-2z" fill="#935441"/>
<path transform="translate(424,699)" d="m0 0h13l2 1v3l-15-2z" fill="#80412F"/>
<path transform="translate(438,670)" d="m0 0h2l-1 4-3 5-2 1-1-4z" fill="#9D6C5E"/>
<path transform="translate(293,661)" d="m0 0h2l7 8v3l-7-6z" fill="#8C8583"/>
<path transform="translate(224,566)" d="m0 0 3 1 2 7h-4l-2-2z" fill="#815041"/>
<path transform="translate(248,555)" d="m0 0 3 2 2 6 1 4-4-2-3-8z" fill="#BA978D"/>
<path transform="translate(854,732)" d="m0 0 3 1-3 10h-2z" fill="#7D584E"/>
<path transform="translate(981,733)" d="m0 0 3 1-2 2v5l1 2-4-1-1-4z" fill="#615A57"/>
<path transform="translate(817,732)" d="m0 0h7l-1 2-6 2-1 4h-2l1-7z" fill="#906457"/>
<path transform="translate(334,697)" d="m0 0 3 4 4 10-3-1-5-11z" fill="#F3DDD6"/>
<path transform="translate(241,630)" d="m0 0 3 1-2 5-4 2-1-4z" fill="#C2B4AF"/>
<path transform="translate(465,597)" d="m0 0 3 2-2 1-1 3 3 1-9 1v-2l5-5z" fill="#FCE7E0"/>
<path transform="translate(229,598)" d="m0 0 1 3-2 7-3-3 1-4z" fill="#865344"/>
<path transform="translate(516,584)" d="m0 0v3l-2 2-1 4h-4l-1-4 5-2z" fill="#FBC8B9"/>
<path transform="translate(454,564)" d="m0 0h2v2l4-1-2 4-9-1v-2z" fill="#FEFEFE"/>
<path transform="translate(233,520)" d="m0 0 4 2 4 6-2 4-2-5-4-5z" fill="#CBAEA6"/>
<path transform="translate(271,512)" d="m0 0h5l-1 3-7 3v-5z" fill="#7C5144"/>
<path transform="translate(319,496)" d="m0 0 2 4 4 2-5 5-1-3v-3l-1-3z" fill="#DFC9C3"/>
<path transform="translate(315,486)" d="m0 0h3l1 3-5 3-3-1 2-4z" fill="#69453A"/>
<path transform="translate(333,460)" d="m0 0h2l-1 11h-3l1-9z" fill="#C98875"/>
<path transform="translate(291,673)" d="m0 0 3 1v11h-1l-1-9-10-1v-1z" fill="#FCE6DF"/>
<path transform="translate(481,507)" d="m0 0 1 4v5l1 2h-3l-1 2-1-4z" fill="#FCDCD3"/>
<path transform="translate(731,732)" d="m0 0h2v7l-3 4-1-3z" fill="#786863"/>
<path transform="translate(435,558)" d="m0 0 1 4-1 5 4 2-6-1 1-8z" fill="#EFAD9A"/>
<path transform="translate(796,732)" d="m0 0h2l-1 8-1 3h-2z" fill="#72615C"/>
<path transform="translate(445,631)" d="m0 0 3 1-3 2 1 7-4-4-1-3z" fill="#FBD0C4"/>
<path transform="translate(961,732)" d="m0 0h2l-1 9-2 2v-7z" fill="#76493C"/>
<path transform="translate(946,733)" d="m0 0h2l-1 9-2 1z" fill="#606060"/>
<path transform="translate(378,697)" d="m0 0 4 1-5 5-3 4 1-5z" fill="#FBCCBE"/>
<path transform="translate(418,674)" d="m0 0h7v1h-5l-1 9h-1z" fill="#FABBA9"/>
<path transform="translate(264,631)" d="m0 0 5 1 2 4-3 3v-5z" fill="#FBC3B3"/>
<path transform="translate(612,741)" d="m0 0h8l-1 2h-7z" fill="#919191"/>
<path transform="translate(379,753)" d="m0 0h1l-1 10h-1v-8z" fill="#D05C3A"/>
<path transform="translate(827,741)" d="m0 0h3l-1 5-2-1z" fill="#7E6E69"/>
<path transform="translate(502,674)" d="m0 0 3 3v3h-2z" fill="#F89173"/>
<path transform="translate(399,528)" d="m0 0 2 4 2 3h-3z" fill="#FAB5A1"/>
<path transform="translate(338,769)" d="m0 0 4 4-1 2-3-4z" fill="#FAAE98"/>
<path transform="translate(379,768)" d="m0 0 4 2 1 2h-3z" fill="#DE9F8D"/>
<path transform="translate(197,635)" d="m0 0 2 1-2 3h-2z" fill="#FBD1C5"/>
<path transform="translate(352,518)" d="m0 0 6 3-4 1z" fill="#FEFEFE"/>
<path transform="translate(418,541)" d="m0 0h1l1 7h-2z" fill="#FEFEFE"/>
<path transform="translate(298,759)" d="m0 0 2 3-1 3z" fill="#F66F48"/>
<path transform="translate(231,710)" d="m0 0h1v5h-2z" fill="#FEFEFE"/>
<path transform="translate(446,641)" d="m0 0 3 2v2h-2z" fill="#FBC5B5"/>
<path transform="translate(195,594)" d="m0 0 3 1-5 2z" fill="#FCE1D9"/>
<path transform="translate(961,728)" d="m0 0h3l-1 3z" fill="#7D5D54"/>
<path transform="translate(267,639)" d="m0 0v3l-2 1z" fill="#FABBA9"/>
<path transform="translate(414,462)" d="m0 0 2 3-1 2z" fill="#FEFEFE"/>
<path transform="translate(339,450)" d="m0 0 2 1-3 3z" fill="#FEFEFE"/>
<path transform="translate(371,757)" d="m0 0 2 4-2-1z" fill="#F88665"/>
<path transform="translate(261,741)" d="m0 0 2 4-2-1z" fill="#FEFEFE"/>
<path transform="translate(797,728)" d="m0 0h2l-1 3z" fill="#944832"/>
<path transform="translate(855,728)" d="m0 0h2l-1 3z" fill="#C55332"/>
<path transform="translate(782,728)" d="m0 0h2l-1 3z" fill="#633D32"/>
<path transform="translate(399,690)" d="m0 0h1v5h-1z" fill="#FAAE98"/>
<path transform="translate(299,530)" d="m0 0 4 2-4-1z" fill="#FEFEFE"/>
<path transform="translate(374,516)" d="m0 0 2 4-2-1z" fill="#FCD6CB"/>
<path transform="translate(608,741)" d="m0 0h2v2h-2z" fill="#7A1B00"/>
<path transform="translate(947,728)" d="m0 0h2v2h-2z" fill="#3F3F3F"/>
<path transform="translate(732,728)" d="m0 0h2v2h-2z" fill="#3D0D00"/>
<path transform="translate(515,594)" d="m0 0 3 1h-3z" fill="#FEFEFE"/>
<path transform="translate(385,700)" d="m0 0 2 2h-2z" fill="#FEFEFE"/>
<path transform="translate(400,688)" d="m0 0 2 1-2 1z" fill="#FEFEFE"/>
<path transform="translate(208,677)" d="m0 0 2 1-2 1z" fill="#FEFEFE"/>
<path transform="translate(203,668)" d="m0 0 3 1z" fill="#FEFEFE"/>
<path transform="translate(436,555)" d="m0 0" fill="#F77954"/>
<path transform="translate(264,643)" d="m0 0" fill="#FEFEFE"/>
<path transform="translate(262,630)" d="m0 0 2 1z" fill="#FEFEFE"/>
<path transform="translate(194,627)" d="m0 0 2 1z" fill="#F99A7F"/>
<path transform="translate(450,593)" d="m0 0 2 1z" fill="#FEFEFE"/>
<path transform="translate(373,504)" d="m0 0" fill="#F99A7F"/>
<path transform="translate(298,462)" d="m0 0" fill="#FEFEFE"/>
<path transform="translate(378,454)" d="m0 0" fill="#FEFEFE"/>
<path transform="translate(337,768)" d="m0 0" fill="#FEFEFE"/>
<path transform="translate(373,761)" d="m0 0" fill="#F43700"/>
<path transform="translate(345,718)" d="m0 0" fill="#FEFEFE"/>
<path transform="translate(410,691)" d="m0 0" fill="#FEFEFE"/>
<path transform="translate(199,634)" d="m0 0" fill="#FEFEFE"/>
<path transform="translate(196,628)" d="m0 0" fill="#F43700"/>
<path transform="translate(490,624)" d="m0 0" fill="#FEFEFE"/>
<path transform="translate(258,619)" d="m0 0" fill="#FEFEFE"/>
<path transform="translate(199,588)" d="m0 0" fill="#FEFEFE"/>
<path transform="translate(198,587)" d="m0 0" fill="#FEFEFE"/>
<path transform="translate(197,586)" d="m0 0" fill="#FEFEFE"/>
<path transform="translate(196,585)" d="m0 0" fill="#FEFEFE"/>
<path transform="translate(483,564)" d="m0 0" fill="#FEFEFE"/>
<path transform="translate(378,524)" d="m0 0" fill="#FEFEFE"/>
<path transform="translate(377,522)" d="m0 0" fill="#FEFEFE"/>
<path transform="translate(377,456)" d="m0 0" fill="#FEFEFE"/>
</svg>
